<svg width="393" height="393" viewBox="0 0 393 393" fill="none" xmlns="http://www.w3.org/2000/svg">
<path opacity="0.7" d="M53.3944 131.33C53.3944 131.33 31.4831 187.912 62.2738 244.909C93.0646 301.907 156.499 331.999 207.266 357.738C258.034 383.476 310.752 370.942 335.804 328.783C360.856 286.624 326.494 256.528 326.453 196.406C326.413 136.285 335.45 120.367 302.902 69.5744C270.354 18.7807 190.458 7.53935 130.061 45.2115C69.6646 82.8837 53.3944 131.33 53.3944 131.33Z" fill="white"/>
<path d="M184.808 28.0767C282.299 19.3938 282.464 74.3981 326.392 125.642C370.319 176.885 379.719 200.119 363.16 259.19C346.601 318.261 290.798 364.569 221.765 338.331C152.732 312.093 113.187 337.289 69.6448 313.991C26.1027 290.692 9.93313 245.677 41.8054 192.624C73.6769 139.572 64.5963 38.782 184.808 28.0767Z" fill="#4758F1"/>
<path opacity="0.7" d="M184.808 28.0767C282.299 19.3938 282.464 74.3981 326.392 125.642C370.319 176.885 379.719 200.119 363.16 259.19C346.601 318.261 290.798 364.569 221.765 338.331C152.732 312.093 113.187 337.289 69.6448 313.991C26.1027 290.692 9.93313 245.677 41.8054 192.624C73.6769 139.572 64.5963 38.782 184.808 28.0767Z" fill="white"/>
<path d="M249.712 51.6291L96.5078 68.6621L120.186 281.634L273.39 264.601L249.712 51.6291Z" fill="white" stroke="#263238" stroke-miterlimit="10" stroke-linecap="round" stroke-linejoin="round"/>
<path d="M249.711 51.6279L96.5068 68.6609L99.7831 98.1295L252.988 81.0965L249.711 51.6279Z" fill="#BFBFBF" stroke="#263238" stroke-miterlimit="10" stroke-linecap="round" stroke-linejoin="round"/>
<path d="M207.142 65.178L141.011 72.5334C139.77 72.6718 138.875 73.7894 139.013 75.0313C139.151 76.2724 140.269 77.1669 141.511 77.0293L207.641 69.6739C208.882 69.5356 209.777 68.4179 209.639 67.176C209.501 65.9342 208.384 65.0405 207.142 65.178Z" fill="white"/>
<path d="M191.637 76.2544L158.571 79.9321C157.951 80.0012 157.503 80.5601 157.572 81.181C157.642 81.802 158.2 82.2492 158.821 82.18L191.887 78.5023C192.508 78.4332 192.955 77.8743 192.886 77.2534C192.817 76.6324 192.257 76.1852 191.637 76.2544Z" fill="white"/>
<path opacity="0.3" d="M216.347 101.725L129.715 111.361C129.252 111.412 128.92 111.829 128.971 112.29C129.022 112.752 129.439 113.085 129.9 113.034L216.533 103.397C216.995 103.346 217.328 102.93 217.277 102.468C217.225 102.007 216.81 101.673 216.347 101.725Z" fill="black"/>
<path opacity="0.3" d="M217.016 107.739L117.38 118.822C116.917 118.873 116.585 119.29 116.636 119.751C116.687 120.213 117.104 120.546 117.565 120.495L217.202 109.412C217.664 109.361 217.996 108.944 217.945 108.483C217.894 108.022 217.478 107.688 217.016 107.739Z" fill="black"/>
<path opacity="0.3" d="M191.678 116.646L118.049 124.837C117.586 124.888 117.254 125.304 117.305 125.766C117.356 126.228 117.773 126.56 118.234 126.509L191.863 118.319C192.326 118.268 192.658 117.851 192.607 117.39C192.556 116.928 192.139 116.595 191.678 116.646Z" fill="black"/>
<path opacity="0.3" d="M239.769 111.606L230.978 112.583C229.797 112.715 228.734 111.864 228.602 110.684L227.625 101.892C227.493 100.712 228.344 99.6483 229.524 99.517L238.316 98.5392C239.496 98.408 240.56 99.2584 240.691 100.439L241.669 109.23C241.8 110.411 240.95 111.474 239.769 111.606Z" stroke="#263238" stroke-miterlimit="10" stroke-linecap="round" stroke-linejoin="round"/>
<path d="M231.095 105.284L233.98 108.011L237.791 102.186" stroke="#4758F1" stroke-width="3" stroke-miterlimit="10" stroke-linecap="round" stroke-linejoin="round"/>
<path opacity="0.3" d="M219.516 130.208L132.884 139.844C132.421 139.895 132.089 140.312 132.14 140.773C132.191 141.235 132.608 141.568 133.069 141.517L219.702 131.88C220.164 131.829 220.497 131.413 220.445 130.951C220.394 130.489 219.979 130.157 219.516 130.208Z" fill="black"/>
<path opacity="0.3" d="M220.185 136.222L120.549 147.305C120.086 147.356 119.754 147.773 119.805 148.234C119.856 148.695 120.273 149.029 120.734 148.978L220.371 137.895C220.833 137.844 221.165 137.427 221.114 136.966C221.063 136.504 220.647 136.17 220.185 136.222Z" fill="black"/>
<path opacity="0.3" d="M194.847 145.129L121.217 153.319C120.755 153.37 120.423 153.787 120.474 154.248C120.525 154.711 120.942 155.043 121.403 154.992L195.032 146.803C195.494 146.752 195.827 146.335 195.776 145.874C195.725 145.411 195.308 145.078 194.847 145.129Z" fill="black"/>
<path opacity="0.3" d="M242.937 140.089L234.146 141.066C232.965 141.198 231.902 140.347 231.77 139.167L230.793 130.375C230.661 129.195 231.512 128.131 232.692 128L241.484 127.022C242.664 126.891 243.728 127.741 243.859 128.922L244.837 137.713C244.969 138.894 244.118 139.957 242.937 140.089Z" stroke="#263238" stroke-miterlimit="10" stroke-linecap="round" stroke-linejoin="round"/>
<path d="M234.264 133.768L237.148 136.494L240.96 130.669" stroke="#4758F1" stroke-width="3" stroke-miterlimit="10" stroke-linecap="round" stroke-linejoin="round"/>
<path opacity="0.3" d="M222.684 158.691L136.051 168.327C135.589 168.378 135.257 168.795 135.308 169.256C135.359 169.719 135.776 170.051 136.237 170L222.87 160.364C223.332 160.312 223.665 159.896 223.613 159.435C223.562 158.972 223.147 158.64 222.684 158.691Z" fill="black"/>
<path opacity="0.3" d="M223.353 164.705L123.717 175.788C123.254 175.839 122.922 176.256 122.973 176.717C123.024 177.178 123.441 177.512 123.902 177.461L223.539 166.378C224.001 166.327 224.333 165.91 224.282 165.449C224.231 164.987 223.815 164.654 223.353 164.705Z" fill="black"/>
<path opacity="0.3" d="M198.014 173.612L124.384 181.802C123.922 181.854 123.59 182.27 123.641 182.732C123.692 183.193 124.109 183.526 124.57 183.475L198.199 175.285C198.661 175.234 198.994 174.817 198.943 174.356C198.892 173.895 198.476 173.561 198.014 173.612Z" fill="black"/>
<path opacity="0.3" d="M246.105 168.572L237.314 169.55C236.133 169.682 235.07 168.831 234.938 167.651L233.961 158.859C233.829 157.679 234.68 156.615 235.86 156.484L244.652 155.506C245.832 155.375 246.896 156.225 247.027 157.406L248.005 166.197C248.136 167.378 247.286 168.44 246.105 168.572Z" stroke="#263238" stroke-miterlimit="10" stroke-linecap="round" stroke-linejoin="round"/>
<path d="M237.432 162.251L240.316 164.977L244.128 159.152" stroke="#4758F1" stroke-width="3" stroke-miterlimit="10" stroke-linecap="round" stroke-linejoin="round"/>
<path opacity="0.3" d="M225.853 187.174L139.22 196.81C138.758 196.862 138.426 197.278 138.477 197.74C138.528 198.202 138.945 198.534 139.406 198.483L226.039 188.847C226.501 188.796 226.833 188.379 226.782 187.918C226.731 187.456 226.315 187.123 225.853 187.174Z" fill="black"/>
<path opacity="0.3" d="M226.522 193.189L126.885 204.271C126.423 204.322 126.091 204.739 126.142 205.2C126.193 205.662 126.61 205.995 127.071 205.944L226.707 194.861C227.17 194.81 227.502 194.393 227.451 193.932C227.4 193.47 226.983 193.137 226.522 193.189Z" fill="black"/>
<path opacity="0.3" d="M201.183 202.096L127.553 210.286C127.091 210.337 126.759 210.753 126.81 211.215C126.861 211.677 127.278 212.009 127.739 211.958L201.368 203.768C201.83 203.717 202.163 203.3 202.112 202.839C202.061 202.377 201.645 202.044 201.183 202.096Z" fill="black"/>
<path opacity="0.3" d="M249.274 197.056L240.483 198.033C239.302 198.165 238.239 197.314 238.107 196.134L237.13 187.342C236.998 186.162 237.849 185.098 239.029 184.967L247.821 183.989C249.001 183.858 250.065 184.708 250.196 185.889L251.174 194.68C251.305 195.861 250.455 196.924 249.274 197.056Z" stroke="#263238" stroke-miterlimit="10" stroke-linecap="round" stroke-linejoin="round"/>
<path d="M240.601 190.734L243.485 193.46L247.297 187.636" stroke="#4758F1" stroke-width="3" stroke-miterlimit="10" stroke-linecap="round" stroke-linejoin="round"/>
<path opacity="0.3" d="M229.021 215.657L142.388 225.293C141.926 225.344 141.594 225.761 141.645 226.222C141.696 226.685 142.112 227.017 142.574 226.966L229.207 217.33C229.669 217.279 230.001 216.862 229.95 216.401C229.899 215.938 229.483 215.606 229.021 215.657Z" fill="black"/>
<path opacity="0.3" d="M229.69 221.671L130.053 232.754C129.591 232.805 129.259 233.222 129.31 233.683C129.361 234.145 129.778 234.478 130.239 234.427L229.875 223.344C230.338 223.293 230.67 222.876 230.619 222.415C230.568 221.953 230.151 221.62 229.69 221.671Z" fill="black"/>
<path opacity="0.3" d="M204.351 230.578L130.721 238.769C130.259 238.82 129.927 239.236 129.978 239.698C130.029 240.16 130.446 240.492 130.907 240.441L204.536 232.251C204.998 232.2 205.331 231.783 205.28 231.322C205.229 230.86 204.813 230.527 204.351 230.578Z" fill="black"/>
<path opacity="0.3" d="M252.442 225.539L243.651 226.516C242.47 226.648 241.407 225.797 241.275 224.617L240.298 215.825C240.166 214.645 241.017 213.581 242.197 213.45L250.989 212.472C252.169 212.341 253.233 213.191 253.364 214.372L254.342 223.163C254.473 224.344 253.623 225.407 252.442 225.539Z" stroke="#263238" stroke-miterlimit="10" stroke-linecap="round" stroke-linejoin="round"/>
<path d="M243.769 219.217L246.653 221.943L250.464 216.119" stroke="#4758F1" stroke-width="3" stroke-miterlimit="10" stroke-linecap="round" stroke-linejoin="round"/>
<path opacity="0.3" d="M231.438 237.391L144.805 247.028C144.343 247.079 144.011 247.495 144.062 247.957C144.113 248.419 144.529 248.751 144.991 248.7L231.624 239.064C232.086 239.013 232.418 238.596 232.367 238.135C232.316 237.673 231.9 237.34 231.438 237.391Z" fill="black"/>
<path opacity="0.3" d="M232.107 243.406L132.47 254.489C132.008 254.54 131.676 254.956 131.727 255.418C131.778 255.88 132.195 256.212 132.656 256.161L232.292 245.079C232.755 245.027 233.087 244.611 233.036 244.149C232.985 243.687 232.569 243.354 232.107 243.406Z" fill="black"/>
<path opacity="0.3" d="M206.769 252.313L133.139 260.503C132.677 260.554 132.345 260.971 132.396 261.432C132.447 261.894 132.863 262.227 133.325 262.176L206.954 253.985C207.416 253.934 207.749 253.518 207.698 253.056C207.647 252.594 207.23 252.262 206.769 252.313Z" fill="black"/>
<path opacity="0.3" d="M254.859 247.272L246.068 248.25C244.887 248.381 243.824 247.531 243.692 246.35L242.715 237.559C242.583 236.378 243.434 235.315 244.614 235.184L253.406 234.206C254.586 234.074 255.65 234.925 255.781 236.106L256.759 244.897C256.891 246.078 256.04 247.141 254.859 247.272Z" stroke="#263238" stroke-miterlimit="10" stroke-linecap="round" stroke-linejoin="round"/>
<path d="M246.186 240.95L249.07 243.678L252.881 237.853" stroke="#4758F1" stroke-width="3" stroke-miterlimit="10" stroke-linecap="round" stroke-linejoin="round"/>
<path d="M159.409 181.777C159.513 181 159.315 180.136 158.788 179.207L157.817 177.496L155.903 178.582L156.947 180.422C157.469 181.342 157.252 181.902 156.609 182.268C155.965 182.633 155.372 182.532 154.85 181.612L152.597 177.638C151.794 177.796 150.991 177.952 150.188 178.109L152.753 182.631C153.922 184.692 155.621 185.285 157.608 184.158C157.954 183.962 158.232 183.74 158.481 183.507C158.23 183.039 158.434 182.343 158.896 182.016C159.052 181.903 159.227 181.83 159.409 181.777Z" fill="#4758F1"/>
<path d="M148.955 175.934L149.409 176.734C150.294 176.722 151.178 176.709 152.064 176.698L150.906 174.657C150.384 173.737 150.591 173.157 151.234 172.793C151.878 172.427 152.482 172.547 153.004 173.467L153.786 174.847L155.7 173.762L154.991 172.511C153.822 170.45 152.123 169.857 150.136 170.983C149.632 171.269 149.234 171.598 148.938 171.96C149.543 172.106 150.143 172.229 150.336 172.157C149.708 172.393 149.079 172.628 148.451 172.863C148.15 173.76 148.311 174.799 148.955 175.934Z" fill="#4758F1"/>
<path d="M163.643 167.554C163.88 167.395 164.177 167.358 164.437 167.242C165.451 166.789 165.681 165.329 165.596 164.302L164.553 163L161.737 164.597L163.496 167.696C163.538 167.641 163.587 167.591 163.643 167.554Z" fill="#4758F1"/>
<path d="M175.631 173.741L177.545 172.655L170.239 159.775L168.428 160.802C169.009 160.94 169.425 161.213 169.439 161.642C168.877 161.717 168.181 161.639 167.57 161.752L171.249 171.288L171.212 171.309L166.564 165.51C166.561 165.783 166.497 166.043 166.28 166.193C166.067 166.34 165.761 166.339 165.592 166.534C165.445 166.703 165.453 166.965 165.316 167.143C165.183 167.313 164.951 167.364 164.774 167.487C164.537 167.652 164.415 167.935 164.219 168.148C164.129 168.246 164.002 168.323 163.872 168.36L169.043 177.476L170.809 176.473L165.643 167.366L165.68 167.345L172.318 175.618L174.232 174.532L170.353 164.523L170.39 164.502L175.631 173.741Z" fill="#4758F1"/>
<path d="M180.469 162.502C180.748 162.607 180.917 162.878 181.053 163.192C181.251 162.367 181.05 161.429 180.464 160.395L179.514 158.721C178.346 156.66 176.715 156.101 174.691 157.249L171.711 158.94L179.017 171.82L180.917 170.742C180.302 170.355 179.619 170.031 179.032 169.608C178.772 169.421 178.521 169.202 178.386 168.912C178.25 168.621 178.258 168.245 178.478 168.012C178.718 167.755 179.11 167.76 179.453 167.875L178.294 165.833L179.252 165.29C179.851 164.95 180.286 164.558 180.597 164.128C180.199 163.487 179.498 162.135 180.469 162.502ZM178.208 163.45L177.251 163.994L174.777 159.633L175.734 159.09C176.378 158.724 176.895 158.82 177.417 159.741L178.512 161.673C179.035 162.592 178.852 163.085 178.208 163.45Z" fill="#4758F1"/>
<path d="M191.307 164.848L190.264 163.008L186.933 164.897L182.058 156.302C181.987 156.363 181.915 156.423 181.845 156.478C181.691 156.597 181.529 156.72 181.337 156.751C181.145 156.783 180.917 156.687 180.872 156.498C180.843 156.377 180.891 156.253 180.915 156.131C181.042 155.475 180.613 154.788 180.254 154.093L178.646 155.005L185.952 167.885L191.307 164.848Z" fill="#4758F1"/>
<path d="M190.393 160.379C190.613 159.8 191.294 159.55 191.68 159.067C191.72 159.016 191.747 158.96 191.78 158.906L191.031 157.587L193.018 156.46C192.987 156.353 192.935 156.243 192.827 156.125C192.696 155.983 191.923 155.842 191.923 155.84C191.698 155.456 192.008 154.882 192.452 154.859C192.587 154.852 192.739 154.882 192.841 154.795C192.926 154.723 192.937 154.604 192.946 154.489L192.765 154.17L189.987 155.746L187.952 152.158L191.448 150.175L190.404 148.335L184.885 151.465L190.292 160.999C190.307 160.788 190.318 160.576 190.393 160.379Z" fill="#4758F1"/>
<path d="M197.711 161.216L196.667 159.376L193.171 161.359L192.125 159.516C191.695 159.92 191.266 160.323 190.837 160.727C190.685 160.87 190.534 161.015 190.387 161.165L192.191 164.346L197.711 161.216Z" fill="#4758F1"/>
<path d="M195.108 146.261C195.074 146.534 194.915 146.837 194.642 146.866C194.509 146.88 194.379 146.824 194.248 146.801C194.007 146.759 193.749 146.824 193.522 146.732C193.468 146.71 193.424 146.68 193.382 146.648L191.068 147.961L192.112 149.801L194.228 148.6L200.49 159.64L202.514 158.491L196.252 147.452L198.368 146.252L197.324 144.412L195.158 145.64C195.12 145.842 195.134 146.055 195.108 146.261Z" fill="#4758F1"/>
<path d="M203.936 154.013L205.511 156.791L207.634 155.586C207.688 155.45 207.749 155.315 207.822 155.187C208.23 154.47 208.959 154.006 209.658 153.57C209.983 153.367 210.309 153.164 210.635 152.961L209.987 151.82L206.491 153.803L204.352 150.031L207.13 148.455L206.086 146.615L203.308 148.191L201.273 144.603L204.769 142.62L203.725 140.78L198.206 143.91L202.178 150.912C203.147 150.441 203.63 152.281 203.936 154.013Z" fill="#4758F1"/>
<path d="M163.232 179.488C163.559 179.55 163.757 179.873 164.006 180.095C164.105 180.183 164.213 180.25 164.326 180.304C164.472 180.238 164.616 180.182 164.765 180.098C166.752 178.971 167.17 177.177 166.001 175.116L165.884 174.912C164.978 174.886 164.072 174.86 163.165 174.835L164.05 176.393C164.572 177.314 164.365 177.892 163.721 178.258C163.077 178.623 162.474 178.503 161.952 177.583L158.007 170.628C157.485 169.708 157.692 169.128 158.336 168.764C158.979 168.398 159.583 168.518 160.105 169.439L162.775 174.145C163.593 173.947 164.433 173.836 165.274 173.836L162.202 168.419C161.033 166.359 159.28 165.797 157.293 166.924C155.305 168.051 154.888 169.844 156.057 171.905L159.856 178.603C160.538 179.806 161.425 180.482 162.436 180.625C162.428 180.579 162.413 180.533 162.409 180.486C162.365 179.987 162.741 179.395 163.232 179.488Z" fill="#4758F1"/>
<path d="M190.374 142.528L196.541 139.03C194.77 139.519 193.216 140.996 191.39 140.792C191.053 140.755 190.694 140.662 190.387 140.806C189.944 141.015 189.845 141.643 190.054 142.087C190.133 142.253 190.247 142.395 190.374 142.528Z" fill="#4758F1"/>
<path d="M174.893 151.308C174.881 151.171 174.902 151.033 174.973 150.909C175.127 150.968 175.286 150.992 175.446 150.994L177.574 149.787C177.927 149.425 178.275 149.06 178.707 148.801C179.099 148.566 179.541 148.431 179.978 148.298C180.136 148.25 180.294 148.202 180.452 148.154L184.364 145.936C184.409 145.857 184.459 145.779 184.532 145.721C184.59 145.674 184.661 145.655 184.729 145.629C183.376 145.219 182.022 144.81 180.668 144.4L179.578 145.019C179.539 145.307 179.5 145.596 179.46 145.884C177.899 146.717 176.339 147.551 174.778 148.384C174.3 148.64 173.805 148.901 173.265 148.954C173.063 148.975 172.861 148.962 172.659 148.942L165.998 152.721C166.054 153.036 166.136 153.346 166.262 153.64C165.871 153.568 165.5 153.41 165.169 153.191L163.802 153.967C164.776 154.61 165.734 155.277 166.674 155.97L174.893 151.308Z" fill="#4758F1"/>
<path d="M203.423 135.126C202.35 134.524 201.278 133.921 200.205 133.319L198.678 134.185C199.567 135.086 200.724 135.72 201.969 135.951L203.423 135.126Z" fill="#4758F1"/>
<path d="M220.757 154.161L208.589 132.709C207.608 130.979 205.402 130.371 203.672 131.352L202.21 132.181C202.396 132.363 202.581 132.545 202.768 132.727C203.356 133.303 203.95 133.893 204.496 134.516L205.232 134.099C205.446 133.977 205.72 134.052 205.841 134.267L218.008 155.718C218.13 155.932 218.055 156.206 217.84 156.328L201.277 165.722C202.706 165.804 204.157 165.604 205.585 165.767C206.097 165.825 206.609 165.93 207.12 166.04L219.399 159.075C221.129 158.095 221.738 155.89 220.757 154.161Z" fill="#4758F1"/>
<path d="M146.205 181.455L140.472 171.346C140.35 171.132 140.425 170.858 140.64 170.737L157.164 161.364C157.106 161.239 157.039 161.117 156.986 160.988C157.222 160.976 157.456 161.007 157.683 161.07L164.349 157.288C164.133 157.213 163.917 157.132 163.705 157.048C162.658 156.633 161.612 156.218 160.565 155.802L158.053 157.227C158.963 157.785 159.872 158.343 160.783 158.902C159.837 158.322 157.891 158.245 156.221 158.267L139.081 167.989C137.351 168.97 136.743 171.175 137.724 172.905L142.688 181.657C142.92 181.599 143.152 181.543 143.382 181.504C144.009 181.396 144.649 181.402 145.285 181.408C145.592 181.412 145.901 181.419 146.205 181.455Z" fill="#4758F1"/>
<path d="M166.583 185.402C166.869 185.648 167.181 185.864 167.527 186.01C167.885 186.161 168.351 186.543 168.075 186.816C166.803 187.394 165.235 186.965 163.982 187.584C163.299 187.92 162.642 188.569 161.908 188.367C162.792 188.897 163.582 189.575 164.255 190.355L195.467 172.651C195.489 172.525 195.51 172.397 195.532 172.271C195.604 171.856 195.688 171.413 195.98 171.109C196.369 170.703 196.995 170.666 197.558 170.658C197.961 170.652 198.386 170.669 198.768 170.779L202.652 168.576C202.125 167.652 201.486 166.796 200.765 166.014L166.583 185.402Z" fill="#4758F1"/>
<path d="M161.534 190.601C160.88 190.386 160.033 189.951 159.494 189.424L153.248 192.966C153.034 193.088 152.761 193.013 152.639 192.798L147.167 183.15C146.617 183.022 146.065 182.853 145.517 182.964C144.885 183.092 144.327 183.83 144.674 184.373C145.329 184.374 145.968 184.766 146.264 185.349C145.922 185.619 145.551 185.837 145.16 186.016L149.891 194.357C150.872 196.087 153.077 196.695 154.807 195.714L162.97 191.084C162.937 191.067 162.905 191.047 162.871 191.031C162.446 190.836 161.98 190.748 161.534 190.601Z" fill="#4758F1"/>
<g opacity="0.2">
<path d="M159.409 181.777C159.513 181 159.315 180.136 158.788 179.207L157.817 177.496L155.903 178.582L156.947 180.422C157.469 181.342 157.252 181.902 156.609 182.268C155.965 182.633 155.372 182.532 154.85 181.612L152.597 177.638C151.794 177.796 150.991 177.952 150.188 178.109L152.753 182.631C153.922 184.692 155.621 185.285 157.608 184.158C157.954 183.962 158.232 183.74 158.481 183.507C158.23 183.039 158.434 182.343 158.896 182.016C159.052 181.903 159.227 181.83 159.409 181.777Z" fill="black"/>
<path d="M148.955 175.934L149.409 176.734C150.294 176.722 151.178 176.709 152.064 176.698L150.906 174.657C150.384 173.737 150.591 173.157 151.234 172.793C151.878 172.427 152.482 172.547 153.004 173.467L153.786 174.847L155.7 173.762L154.991 172.511C153.822 170.45 152.123 169.857 150.136 170.983C149.632 171.269 149.234 171.598 148.938 171.96C149.543 172.106 150.143 172.229 150.336 172.157C149.708 172.393 149.079 172.628 148.451 172.863C148.15 173.76 148.311 174.799 148.955 175.934Z" fill="black"/>
<path d="M163.643 167.554C163.88 167.395 164.177 167.358 164.437 167.242C165.451 166.789 165.681 165.329 165.596 164.302L164.553 163L161.737 164.597L163.496 167.696C163.538 167.641 163.587 167.591 163.643 167.554Z" fill="black"/>
<path d="M175.631 173.741L177.545 172.655L170.239 159.775L168.428 160.802C169.009 160.94 169.425 161.213 169.439 161.642C168.877 161.717 168.181 161.639 167.57 161.752L171.249 171.288L171.212 171.309L166.564 165.51C166.561 165.783 166.497 166.043 166.28 166.193C166.067 166.34 165.761 166.339 165.592 166.534C165.445 166.703 165.453 166.965 165.316 167.143C165.183 167.313 164.951 167.364 164.774 167.487C164.537 167.652 164.415 167.935 164.219 168.148C164.129 168.246 164.002 168.323 163.872 168.36L169.043 177.476L170.809 176.473L165.643 167.366L165.68 167.345L172.318 175.618L174.232 174.532L170.353 164.523L170.39 164.502L175.631 173.741Z" fill="black"/>
<path d="M180.469 162.502C180.748 162.607 180.917 162.878 181.053 163.192C181.251 162.367 181.05 161.429 180.464 160.395L179.514 158.721C178.346 156.66 176.715 156.101 174.691 157.249L171.711 158.94L179.017 171.82L180.917 170.742C180.302 170.355 179.619 170.031 179.032 169.608C178.772 169.421 178.521 169.202 178.386 168.912C178.25 168.621 178.258 168.245 178.478 168.012C178.718 167.755 179.11 167.76 179.453 167.875L178.294 165.833L179.252 165.29C179.851 164.95 180.286 164.558 180.597 164.128C180.199 163.487 179.498 162.135 180.469 162.502ZM178.208 163.45L177.251 163.994L174.777 159.633L175.734 159.09C176.378 158.724 176.895 158.82 177.417 159.741L178.512 161.673C179.035 162.592 178.852 163.085 178.208 163.45Z" fill="black"/>
<path d="M191.307 164.848L190.264 163.008L186.933 164.897L182.058 156.302C181.987 156.363 181.915 156.423 181.845 156.478C181.691 156.597 181.529 156.72 181.337 156.751C181.145 156.783 180.917 156.687 180.872 156.498C180.843 156.377 180.891 156.253 180.915 156.131C181.042 155.475 180.613 154.788 180.254 154.093L178.646 155.005L185.952 167.885L191.307 164.848Z" fill="black"/>
<path d="M190.393 160.379C190.613 159.8 191.294 159.55 191.68 159.067C191.72 159.016 191.747 158.96 191.78 158.906L191.031 157.587L193.018 156.46C192.987 156.353 192.935 156.243 192.827 156.125C192.696 155.983 191.923 155.842 191.923 155.84C191.698 155.456 192.008 154.882 192.452 154.859C192.587 154.852 192.739 154.882 192.841 154.795C192.926 154.723 192.937 154.604 192.946 154.489L192.765 154.17L189.987 155.746L187.952 152.158L191.448 150.175L190.404 148.335L184.885 151.465L190.292 160.999C190.307 160.788 190.318 160.576 190.393 160.379Z" fill="black"/>
<path d="M197.711 161.216L196.667 159.376L193.171 161.359L192.125 159.516C191.695 159.92 191.266 160.323 190.837 160.727C190.685 160.87 190.534 161.015 190.387 161.165L192.191 164.346L197.711 161.216Z" fill="black"/>
<path d="M195.108 146.261C195.074 146.534 194.915 146.837 194.642 146.866C194.509 146.88 194.379 146.824 194.248 146.801C194.007 146.759 193.749 146.824 193.522 146.732C193.468 146.71 193.424 146.68 193.382 146.648L191.068 147.961L192.112 149.801L194.228 148.6L200.49 159.64L202.514 158.491L196.252 147.452L198.368 146.252L197.324 144.412L195.158 145.64C195.12 145.842 195.134 146.055 195.108 146.261Z" fill="black"/>
<path d="M203.936 154.013L205.511 156.791L207.634 155.586C207.688 155.45 207.749 155.315 207.822 155.187C208.23 154.47 208.959 154.006 209.658 153.57C209.983 153.367 210.309 153.164 210.635 152.961L209.987 151.82L206.491 153.803L204.352 150.031L207.13 148.455L206.086 146.615L203.308 148.191L201.273 144.603L204.769 142.62L203.725 140.78L198.206 143.91L202.178 150.912C203.147 150.441 203.63 152.281 203.936 154.013Z" fill="black"/>
<path d="M163.232 179.488C163.559 179.55 163.757 179.873 164.006 180.095C164.105 180.183 164.213 180.25 164.326 180.304C164.472 180.238 164.616 180.182 164.765 180.098C166.752 178.971 167.17 177.177 166.001 175.116L165.884 174.912C164.978 174.886 164.072 174.86 163.165 174.835L164.05 176.393C164.572 177.314 164.365 177.892 163.721 178.258C163.077 178.623 162.474 178.503 161.952 177.583L158.007 170.628C157.485 169.708 157.692 169.128 158.336 168.764C158.979 168.398 159.583 168.518 160.105 169.439L162.775 174.145C163.593 173.947 164.433 173.836 165.274 173.836L162.202 168.419C161.033 166.359 159.28 165.797 157.293 166.924C155.305 168.051 154.888 169.844 156.057 171.905L159.856 178.603C160.538 179.806 161.425 180.482 162.436 180.625C162.428 180.579 162.413 180.533 162.409 180.486C162.365 179.987 162.741 179.395 163.232 179.488Z" fill="black"/>
<path d="M190.374 142.528L196.541 139.03C194.77 139.519 193.216 140.996 191.39 140.792C191.053 140.755 190.694 140.662 190.387 140.806C189.944 141.015 189.845 141.643 190.054 142.087C190.133 142.253 190.247 142.395 190.374 142.528Z" fill="black"/>
<path d="M174.893 151.308C174.881 151.171 174.902 151.033 174.973 150.909C175.127 150.968 175.286 150.992 175.446 150.994L177.574 149.787C177.927 149.425 178.275 149.06 178.707 148.801C179.099 148.566 179.541 148.431 179.978 148.298C180.136 148.25 180.294 148.202 180.452 148.154L184.364 145.936C184.409 145.857 184.459 145.779 184.532 145.721C184.59 145.674 184.661 145.655 184.729 145.629C183.376 145.219 182.022 144.81 180.668 144.4L179.578 145.019C179.539 145.307 179.5 145.596 179.46 145.884C177.899 146.717 176.339 147.551 174.778 148.384C174.3 148.64 173.805 148.901 173.265 148.954C173.063 148.975 172.861 148.962 172.659 148.942L165.998 152.721C166.054 153.036 166.136 153.346 166.262 153.64C165.871 153.568 165.5 153.41 165.169 153.191L163.802 153.967C164.776 154.61 165.734 155.277 166.674 155.97L174.893 151.308Z" fill="black"/>
<path d="M203.423 135.126C202.35 134.524 201.278 133.921 200.205 133.319L198.678 134.185C199.567 135.086 200.724 135.72 201.969 135.951L203.423 135.126Z" fill="black"/>
<path d="M220.757 154.161L208.589 132.709C207.608 130.979 205.402 130.371 203.672 131.352L202.21 132.181C202.396 132.363 202.581 132.545 202.768 132.727C203.356 133.303 203.95 133.893 204.496 134.516L205.232 134.099C205.446 133.977 205.72 134.052 205.841 134.267L218.008 155.718C218.13 155.932 218.055 156.206 217.84 156.328L201.277 165.722C202.706 165.804 204.157 165.604 205.585 165.767C206.097 165.825 206.609 165.93 207.12 166.04L219.399 159.075C221.129 158.095 221.738 155.89 220.757 154.161Z" fill="black"/>
<path d="M146.205 181.455L140.472 171.346C140.35 171.132 140.425 170.858 140.64 170.737L157.164 161.364C157.106 161.239 157.039 161.117 156.986 160.988C157.222 160.976 157.456 161.007 157.683 161.07L164.349 157.288C164.133 157.213 163.917 157.132 163.705 157.048C162.658 156.633 161.612 156.218 160.565 155.802L158.053 157.227C158.963 157.785 159.872 158.343 160.783 158.902C159.837 158.322 157.891 158.245 156.221 158.267L139.081 167.989C137.351 168.97 136.743 171.175 137.724 172.905L142.688 181.657C142.92 181.599 143.152 181.543 143.382 181.504C144.009 181.396 144.649 181.402 145.285 181.408C145.592 181.412 145.901 181.419 146.205 181.455Z" fill="black"/>
<path d="M166.583 185.402C166.869 185.648 167.181 185.864 167.527 186.01C167.885 186.161 168.351 186.543 168.075 186.816C166.803 187.394 165.235 186.965 163.982 187.584C163.299 187.92 162.642 188.569 161.908 188.367C162.792 188.897 163.582 189.575 164.255 190.355L195.467 172.651C195.489 172.525 195.51 172.397 195.532 172.271C195.604 171.856 195.688 171.413 195.98 171.109C196.369 170.703 196.995 170.666 197.558 170.658C197.961 170.652 198.386 170.669 198.768 170.779L202.652 168.576C202.125 167.652 201.486 166.796 200.765 166.014L166.583 185.402Z" fill="black"/>
<path d="M161.534 190.601C160.88 190.386 160.033 189.951 159.494 189.424L153.248 192.966C153.034 193.088 152.761 193.013 152.639 192.798L147.167 183.15C146.617 183.022 146.065 182.853 145.517 182.964C144.885 183.092 144.327 183.83 144.674 184.373C145.329 184.374 145.968 184.766 146.264 185.349C145.922 185.619 145.551 185.837 145.16 186.016L149.891 194.357C150.872 196.087 153.077 196.695 154.807 195.714L162.97 191.084C162.937 191.067 162.905 191.047 162.871 191.031C162.446 190.836 161.98 190.748 161.534 190.601Z" fill="black"/>
</g>
<path opacity="0.3" d="M126.137 162.528C130.933 166.053 134.937 182.986 135.303 198.472C135.669 213.959 143.122 240.122 144.057 244.411C144.991 248.7 144.624 254.876 150.187 246.277C155.751 237.678 172.033 222.752 178.816 227.708C185.598 232.665 174.174 249.345 167.987 258.32C161.801 267.294 161.175 283.1 153.768 292.997C146.361 302.893 139.653 317.833 132.391 317.606C125.129 317.379 77.0469 353.064 77.0469 353.064L77.9901 304.217L121.19 233.482L126.137 162.528Z" fill="black" fill-opacity="0.7"/>
<path d="M182.761 230.109C182.517 231.642 174.052 242.858 169.077 251.253C164.101 259.647 159.44 274.259 158.19 276.436C156.949 278.613 141.716 291.983 137.503 297.587C133.29 303.184 125.854 305.668 118.395 310.957C113.601 314.353 98.6588 331.873 88.5901 343.961C82.9938 350.682 78.8987 355.728 78.8987 355.728L14.5332 338.939C14.5332 338.939 19.8623 334.545 26.8734 328.619C26.8813 328.619 26.897 328.611 26.9206 328.587C26.9363 328.572 26.9599 328.556 26.9913 328.532C38.5298 318.778 54.572 304.968 59.0051 299.757C66.1498 291.362 76.1006 281.412 76.1006 281.412C75.4954 269.755 76.7294 258.712 75.6368 254.515C75.0709 252.322 74.057 239.848 73.3024 236.012C71.3924 226.211 63.0844 216.056 62.1491 212.055C61.2216 208.054 50.2255 190.974 55.5781 187.823C56.6942 187.162 57.7868 186.958 58.8479 187.107C66.0791 188.106 72.037 205.57 76.1242 210.019C77.4211 211.426 79.1581 213.981 80.8873 216.716C84.1256 221.848 87.3011 227.618 87.3011 227.618C88.543 222.642 79.5275 204.918 77.0359 188.129C74.5522 171.34 67.3996 162.325 77.0359 161.287C77.8848 161.193 78.6787 161.271 79.4254 161.492C86.2085 163.472 89.1482 177.565 93.2039 191.242C93.5812 192.499 96.6702 201.53 99.0754 208.494C99.0754 208.502 99.0754 208.502 99.0832 208.51C100.647 213.069 101.913 216.739 101.913 216.739C102.219 208.188 99.5784 200.257 99.1147 192.484C98.926 189.379 99.9164 176.936 98.6745 164.502C97.6213 154.009 98.1007 149.757 102.204 148.931C102.958 148.774 103.846 148.743 104.868 148.806C111.981 149.254 114.505 168.157 114.505 175.537C114.505 179.821 115.236 188.184 115.849 194.456C116.297 198.992 116.682 202.434 116.682 202.434C116.682 202.434 117.924 192.02 116.996 169.556C116.784 164.636 117.106 161.114 119.04 159.692C120.101 158.921 121.634 158.772 123.834 159.369C130.052 161.051 132.072 184.089 132.072 192.798C132.072 201.499 137.047 216.425 137.982 228.184C138.918 239.934 142.989 254.357 142.989 254.357C142.989 254.357 145.292 255.293 146.841 254.986C148.397 254.672 159.126 238.818 159.126 238.818C164.125 227.964 173.855 224.686 179.153 225.889C181.597 226.439 183.107 227.948 182.761 230.109Z" fill="white"/>
<path opacity="0.4" d="M182.761 230.109C182.517 231.642 174.052 242.858 169.076 251.253C164.101 259.647 159.44 274.259 158.19 276.436C156.948 278.614 141.716 291.983 137.503 297.588C133.29 303.184 125.854 305.668 118.395 310.957C113.6 314.353 98.6585 331.873 88.5898 343.962C89.6981 339.576 92.1819 333.972 98.6742 328.587C109.945 319.226 110.621 311.885 116.681 305.668C122.742 299.45 133.415 301.313 137.251 293.854C141.095 286.387 154.465 279.549 157.263 273.017C160.061 266.486 154.465 265.102 159.44 257.242C164.415 249.39 169.241 247.472 168.534 244.391C167.834 241.302 165.736 236.641 170.051 232.75C172.747 230.33 175.914 227.288 179.153 225.889C181.597 226.439 183.106 227.948 182.761 230.109Z" fill="#4758F1"/>
<path opacity="0.4" d="M102.117 267.004C100.05 265.967 101.708 263.9 100.254 262.178C98.8002 260.465 95.4833 271.571 94.713 271.618C93.9348 271.673 91.7576 265.967 90.8773 265.401C89.9891 264.827 89.4782 267.217 88.2285 271.618C86.9866 276.028 82.4278 278.205 79.7633 281.412C77.1066 284.626 61.0722 301.628 57.1343 308.049C53.2593 314.377 28.8776 327.18 26.9912 328.532C38.5297 318.778 54.572 304.968 59.005 299.757C66.1497 291.362 76.1005 281.412 76.1005 281.412C75.4953 269.755 76.7293 258.712 75.6368 254.515C75.0708 252.322 74.0569 239.848 73.3023 236.012C71.3924 226.211 63.0843 216.056 62.149 212.055C61.2215 208.054 50.2254 190.975 55.578 187.823C56.6942 187.162 57.7867 186.958 58.8478 187.107C57.6295 187.972 56.4426 189.214 57.5509 191.014C59.5238 194.205 61.6931 197.561 61.6931 201.09C61.6931 204.612 67.706 209.587 70.0404 212.849C72.3749 216.119 70.1976 214.979 71.7539 219.491C73.3023 224.01 75.173 223.059 76.1005 227.618C77.0358 232.184 82.2156 235.085 81.3903 240.768C80.5571 246.45 83.874 254.358 83.874 254.358C83.874 254.358 86.57 246.694 85.5875 242.544C84.605 238.402 85.7447 233.214 84.833 231.815C84.0155 230.557 81.8933 222.022 80.8872 216.716C84.1256 221.849 87.301 227.618 87.301 227.618C88.5429 222.642 79.5275 204.918 77.0358 188.129C74.5521 171.34 67.3995 162.325 77.0358 161.287C77.8847 161.193 78.6786 161.272 79.4253 161.492C83.5361 169.171 80.675 174.885 79.7633 178.186C78.765 181.818 84.7072 191.14 85.5875 197.561C86.405 203.558 87.9927 202.937 88.2049 202.827C88.0241 202.992 86.4914 204.557 87.4032 209.005C88.37 213.737 95.2789 224.922 95.2789 228.05C95.2789 231.171 94.713 236.327 94.713 237.852C94.713 239.392 100.254 249.579 100.875 252.251C101.496 254.923 100.616 247.103 102.117 244.415C103.626 241.719 104.412 232.24 104.609 232.75C107.147 239.408 104.192 268.042 102.117 267.004Z" fill="#4758F1"/>
<path opacity="0.4" d="M106.573 196.767C104.813 199.432 104.86 220.229 101.834 220.3C100.38 220.332 99.6722 215.073 99.0827 208.51C100.647 213.069 101.912 216.74 101.912 216.74C102.219 208.188 99.5779 200.257 99.1141 192.484C98.9255 189.379 99.9159 176.937 98.674 164.502C97.6207 154.009 98.1002 149.757 102.203 148.931C103.068 151.73 105.19 155.031 105.732 158.096C106.471 162.325 105.025 165.823 103.783 166.349C102.533 166.884 102.329 169.603 103.885 170.004C105.434 170.405 103.846 190.251 104.608 192.83C105.363 195.4 108.342 194.103 106.573 196.767Z" fill="#4758F1"/>
<path opacity="0.4" d="M122.726 173.486C119.496 174.909 119.323 177.455 118.356 181.11C117.389 184.765 119.74 190.102 118.356 198.489C116.973 206.875 122.019 212.283 118.356 221.668C114.694 231.053 116.415 213.839 115.802 205.948C115.55 202.717 115.645 198.426 115.849 194.456C116.297 198.992 116.682 202.434 116.682 202.434C116.682 202.434 117.924 192.02 116.997 169.556C116.784 164.636 117.107 161.114 119.04 159.692C122.357 162.671 125.477 172.276 122.726 173.486Z" fill="#4758F1"/>
<path d="M78.9025 355.73C78.9025 355.73 110.93 316.239 118.393 310.954C125.855 305.668 133.29 303.184 137.502 297.585C141.714 291.987 156.95 278.616 158.194 276.439C159.438 274.262 164.102 259.647 169.077 251.252C174.052 242.857 182.515 231.643 182.759 230.108C183.848 223.267 166.435 222.956 159.127 238.814C159.127 238.814 148.4 254.673 146.845 254.983C145.29 255.295 142.994 254.36 142.994 254.36C142.994 254.36 138.916 239.938 137.984 228.182C137.051 216.426 132.076 201.501 132.076 192.795C132.076 184.088 130.055 161.054 123.836 159.368C117.617 157.683 116.679 161.945 116.995 169.553C117.928 192.018 116.684 202.434 116.684 202.434C116.684 202.434 114.507 182.919 114.507 175.538C114.507 168.156 111.984 149.257 104.868 148.804C98.3379 148.388 97.4293 152.061 98.6735 164.499C99.917 176.937 98.9297 189.38 99.1152 192.484C99.5813 200.257 102.225 208.186 101.913 216.737C101.913 216.737 93.8262 193.326 93.2069 191.239C88.7054 176.062 85.578 160.369 77.0381 161.287C67.3986 162.322 74.5504 171.339 77.0381 188.13C79.5258 204.921 88.5428 222.645 87.2993 227.62C87.2993 227.62 79.8402 214.074 76.1224 210.022C71.4418 204.921 64.2899 182.689 55.5834 187.82C50.2253 190.977 61.2214 208.052 62.1536 212.053C63.0858 216.053 71.3938 226.213 73.3069 236.016C74.0552 239.851 75.0699 252.323 75.639 254.518C76.7276 258.716 75.4967 269.755 76.1051 281.415C76.1051 281.415 66.1551 291.365 59.0033 299.761C51.8515 308.157 14.5361 338.939 14.5361 338.939" stroke="#263238" stroke-miterlimit="10" stroke-linecap="round" stroke-linejoin="round"/>
<path d="M142.992 254.36C142.992 254.36 145.36 259.181 142.992 265.4" stroke="#263238" stroke-miterlimit="10" stroke-linecap="round" stroke-linejoin="round"/>
<path d="M145.609 255.019C145.609 255.019 148.71 257.16 147.466 260.892" stroke="#263238" stroke-miterlimit="10" stroke-linecap="round" stroke-linejoin="round"/>
<path d="M116.683 202.434C116.683 202.434 119.17 220.002 118.082 223.267" stroke="#263238" stroke-miterlimit="10" stroke-linecap="round" stroke-linejoin="round"/>
<path d="M101.912 216.737C101.912 216.737 102.378 219.381 101.912 221.868" stroke="#263238" stroke-miterlimit="10" stroke-linecap="round" stroke-linejoin="round"/>
<path d="M87.2979 227.62C87.2979 227.62 87.7639 230.263 87.2979 230.885" stroke="#263238" stroke-miterlimit="10" stroke-linecap="round" stroke-linejoin="round"/>
<path d="M166.123 242.546C166.123 242.546 168.935 244.068 169.854 246.277" stroke="#263238" stroke-miterlimit="10" stroke-linecap="round" stroke-linejoin="round"/>
<path d="M102.016 169.553C102.016 169.553 104.866 170.399 107.198 168.148" stroke="#263238" stroke-miterlimit="10" stroke-linecap="round" stroke-linejoin="round"/>
<path d="M103.001 194.816C103.001 194.816 108.598 196.682 110.619 194.816" stroke="#263238" stroke-miterlimit="10" stroke-linecap="round" stroke-linejoin="round"/>
<path d="M121.191 200.257C121.191 200.257 124.923 198.858 127.41 199.636" stroke="#263238" stroke-miterlimit="10" stroke-linecap="round" stroke-linejoin="round"/>
<path d="M85.5879 205.232C85.5879 205.232 88.5417 201.346 90.8737 202.434" stroke="#263238" stroke-miterlimit="10" stroke-linecap="round" stroke-linejoin="round"/>
<path d="M73.4617 216.737C73.4617 216.737 70.8184 217.981 70.041 219.303" stroke="#263238" stroke-miterlimit="10" stroke-linecap="round" stroke-linejoin="round"/>
<path d="M76.1035 281.414C76.1035 281.414 77.347 280.015 77.8139 279.082C78.2807 278.149 77.6582 268.199 77.8139 261.824" stroke="#263238" stroke-miterlimit="10" stroke-linecap="round" stroke-linejoin="round"/>
<path d="M108.723 320.566C105.056 324.666 93.8278 332.099 89.3193 336.607" stroke="#263238" stroke-miterlimit="10" stroke-linecap="round" stroke-linejoin="round"/>
<path d="M123.523 227.62C121.657 232.906 123.679 239.592 123.523 242.545C123.368 245.499 122.728 259.026 122.728 259.026" stroke="#263238" stroke-miterlimit="10" stroke-linecap="round" stroke-linejoin="round"/>
<path d="M106.576 227.62C104.089 231.818 104.866 237.414 105.643 240.213C106.421 243.012 105.731 254.36 105.731 254.36" stroke="#263238" stroke-miterlimit="10" stroke-linecap="round" stroke-linejoin="round"/>
<path d="M79.8354 240.99C79.3693 245.189 81.3901 248.92 81.3901 248.92" stroke="#263238" stroke-miterlimit="10" stroke-linecap="round" stroke-linejoin="round"/>
<path d="M95.2271 232.751C93.828 237.881 95.694 240.213 95.8488 240.99" stroke="#263238" stroke-miterlimit="10" stroke-linecap="round" stroke-linejoin="round"/>
<path opacity="0.3" d="M221.509 198.845L218.862 183.471C218.365 180.588 220.371 177.873 223.272 177.499L229.205 176.734C229.205 176.734 227.226 172.715 233.599 160.988C239.972 149.262 270.617 118.195 293.852 170.42C317.087 222.645 338.317 329.059 338.317 329.059C338.317 329.059 275.603 256.05 273.609 252.308C271.615 248.565 252.519 250.801 248.111 240.765C243.703 230.729 234.444 202.09 234.444 202.09L227.27 203.067C224.526 203.441 221.979 201.574 221.509 198.845Z" fill="black" fill-opacity="0.7"/>
<path d="M276.782 163.582L264.749 165.767L248.022 168.809L226.117 172.794C224.348 173.117 222.658 171.945 222.336 170.177L217.526 143.728C217.211 141.96 218.382 140.27 220.143 139.947L232.884 137.629L251.418 134.265L270.809 130.735C272.577 130.413 274.267 131.584 274.589 133.353L279.4 159.802C279.722 161.57 278.551 163.26 276.782 163.582Z" fill="#4758F1"/>
<mask id="mask0_3044_144904" style="mask-type:luminance" maskUnits="userSpaceOnUse" x="217" y="130" width="63" height="43">
<path d="M276.782 163.582L264.749 165.767L248.022 168.809L226.117 172.794C224.348 173.117 222.658 171.945 222.336 170.177L217.526 143.728C217.211 141.96 218.382 140.27 220.143 139.947L232.884 137.629L251.418 134.265L270.809 130.735C272.577 130.413 274.267 131.584 274.589 133.353L279.4 159.802C279.722 161.57 278.551 163.26 276.782 163.582Z" fill="white"/>
</mask>
<g mask="url(#mask0_3044_144904)">
<path opacity="0.3" d="M268.27 146.023L264.748 165.768L248.022 168.809C243.181 166.679 235.195 162.969 233.599 160.989C231.697 158.639 231.964 144.734 232.884 137.629L251.418 134.265C257.95 138.729 268.27 146.023 268.27 146.023Z" fill="black" fill-opacity="0.7"/>
</g>
<mask id="mask1_3044_144904" style="mask-type:luminance" maskUnits="userSpaceOnUse" x="217" y="130" width="63" height="43">
<path d="M276.782 163.582L264.749 165.767L248.022 168.809L226.117 172.794C224.348 173.117 222.658 171.945 222.336 170.177L217.526 143.728C217.211 141.96 218.382 140.27 220.143 139.947L232.884 137.629L251.418 134.265L270.809 130.735C272.577 130.413 274.267 131.584 274.589 133.353L279.4 159.802C279.722 161.57 278.551 163.26 276.782 163.582Z" fill="white"/>
</mask>
<g mask="url(#mask1_3044_144904)">
<path opacity="0.3" d="M229.441 172.189L226.117 172.794C224.348 173.116 222.658 171.945 222.336 170.177L217.526 143.728C217.211 141.959 218.382 140.27 220.143 139.947L223.46 139.342C221.699 139.672 220.528 141.354 220.85 143.123L225.661 169.572C225.983 171.34 227.673 172.511 229.441 172.189Z" fill="black" fill-opacity="0.7"/>
</g>
<path d="M276.782 163.582L264.748 165.767L248.022 168.809L226.117 172.794C224.348 173.117 222.658 171.945 222.336 170.177L217.526 143.728C217.211 141.96 218.382 140.27 220.143 139.947L232.884 137.629L251.418 134.265L270.809 130.735C272.577 130.413 274.267 131.584 274.589 133.353L279.4 159.802C279.722 161.57 278.551 163.26 276.782 163.582Z" stroke="#263238" stroke-miterlimit="10" stroke-linecap="round" stroke-linejoin="round"/>
<path d="M280.105 162.979L229.439 172.19C227.672 172.511 225.98 171.339 225.659 169.573L220.85 143.123C220.528 141.357 221.7 139.665 223.467 139.344L274.133 130.132C275.899 129.812 277.591 130.983 277.913 132.749L282.722 159.199C283.043 160.966 281.871 162.657 280.105 162.979Z" stroke="#263238" stroke-miterlimit="10" stroke-linecap="round" stroke-linejoin="round"/>
<path d="M277.1 161.617L229.552 170.262C228.697 170.417 227.877 169.85 227.721 168.994L222.985 142.94C222.829 142.085 223.397 141.265 224.252 141.109L271.8 132.465C272.656 132.309 273.476 132.877 273.631 133.732L278.368 159.786C278.524 160.642 277.956 161.462 277.1 161.617Z" stroke="#263238" stroke-miterlimit="10" stroke-linecap="round" stroke-linejoin="round"/>
<path d="M280.107 162.977L276.806 163.574C278.559 163.244 279.722 161.562 279.4 159.802L274.589 133.353C274.267 131.584 272.577 130.413 270.809 130.735L274.133 130.13C275.902 129.816 277.592 130.987 277.914 132.748L282.724 159.196C283.039 160.965 281.868 162.655 280.107 162.977Z" stroke="#263238" stroke-miterlimit="10" stroke-linecap="round" stroke-linejoin="round"/>
<path d="M375.731 247.7L343.16 335.009C343.16 335.009 329.546 309.102 316.97 285.066C306.925 265.872 297.54 247.873 296.275 245.224C293.437 239.258 283.777 226.761 283.777 226.761C283.777 226.761 273.834 221.07 269.283 211.159C264.74 201.24 259.726 165.791 259.726 165.791C259.726 165.791 246.655 160.871 243.534 158.701C240.406 156.54 237.568 136.646 237.568 134.375C237.568 132.103 240.689 127.552 240.689 127.552C240.689 127.552 239.989 124.219 243.982 120.855C245.043 119.959 246.442 119.055 248.282 118.222C248.305 118.207 248.337 118.199 248.36 118.183C248.36 118.183 247.841 110.661 251.756 108.468C251.936 108.366 252.133 108.271 252.337 108.193C255.827 106.849 267.256 105.112 267.256 105.112C267.256 105.112 269.959 102.683 272.797 101.913C274.825 101.355 285.955 103.941 292.172 105.473C294.671 106.086 296.377 106.527 296.377 106.527C296.377 106.527 306.894 107.006 308.882 108.193C310.478 109.144 312.081 110.795 312.655 111.408C312.655 111.415 312.663 111.415 312.663 111.415C312.781 111.557 312.859 111.643 312.859 111.643C312.859 111.643 322.236 113.593 324.225 117.028C326.213 120.454 327.062 137.503 325.648 148.578C324.225 159.66 326.771 178.446 326.771 178.446C326.771 178.446 329.703 192.963 331.975 198.473C334.246 203.983 375.731 247.7 375.731 247.7Z" fill="white"/>
<path opacity="0.4" d="M316.97 285.066C306.925 265.872 297.54 247.873 296.275 245.224C293.437 239.258 283.777 226.761 283.777 226.761C283.777 226.761 273.834 221.07 269.283 211.159C264.74 201.239 259.726 165.791 259.726 165.791C259.726 165.791 246.655 160.87 243.534 158.701C240.406 156.54 237.568 136.646 237.568 134.374C237.568 132.103 240.689 127.552 240.689 127.552C240.689 127.552 239.989 124.219 243.982 120.855C243.99 121.751 243.998 123.26 243.951 125.634C243.856 130.138 249.162 157.294 250.474 156.469C251.787 155.636 253.815 153.655 253.28 151.902C253.28 151.902 250.71 141.362 248.282 118.222C248.305 118.206 248.337 118.198 248.36 118.183C248.36 118.183 247.841 110.661 251.756 108.468C251.056 110.362 250.506 112.256 250.474 113.569C250.388 117.232 254.742 148.617 256.448 149.411C258.162 150.197 262.477 146.023 262.477 146.023C262.477 146.023 260.999 137.117 261.526 133.321C261.526 133.321 274.675 141.338 275.068 150.44C275.108 151.438 277.631 165.704 277.631 165.704C277.631 165.704 266.32 187.241 277.867 206.891C277.867 206.891 271.995 203.369 270.596 197.773C270.596 197.773 268.89 214.232 281.018 222.949C281.018 222.949 289.719 214.405 298.271 213.32C298.271 213.32 298.428 213.886 292.675 218.421C286.921 222.957 286.143 224.977 286.143 224.977C286.143 224.977 292.368 218.704 297.344 218.421C297.344 218.421 292.211 224.356 292.368 225.597C292.518 226.839 307.043 251.661 312.325 268.977C314.541 276.239 316.011 281.459 316.97 285.066Z" fill="#4758F1"/>
<path opacity="0.4" d="M276.207 120.339C276.207 120.339 280.395 123.444 281.639 120.339C282.883 117.234 282.987 115.058 282.987 115.058C282.987 115.058 284.594 114.314 286.148 118.184C287.703 122.055 303.051 123.053 306.649 125.042C310.246 127.029 311.682 125.042 311.682 125.042C311.682 125.042 314.602 127.273 312.86 130.882C311.117 134.492 316.063 134.803 317.974 132.16C319.886 129.517 318.409 139.758 313.667 140.779C313.667 140.779 313.807 145.26 310.757 148.336H313.34C313.34 148.336 306.456 153.794 304.62 154.094C302.783 154.393 311.44 157.453 309.833 158.099C308.226 158.746 303.685 158.685 303.685 158.685C303.685 158.685 306.627 160.72 306.649 162.065C306.671 163.409 305.259 164.421 304.62 163.302C303.981 162.184 298.908 146.078 296.381 140.13C293.852 134.181 283.368 129.507 276.207 120.339Z" fill="#4758F1"/>
<path opacity="0.4" d="M312.655 111.407C303.836 108.994 292.007 105.56 292.007 105.56C292.007 105.56 292.062 105.528 292.172 105.473C294.671 106.086 296.377 106.526 296.377 106.526C296.377 106.526 306.894 107.006 308.882 108.193C310.478 109.144 312.081 110.794 312.655 111.407Z" fill="#4758F1"/>
<path d="M300.215 125.283C292.543 123.72 287.059 130.263 287.059 130.263C287.059 130.263 294.689 137.163 296.379 140.13C298.074 143.108 300.872 153.078 300.872 153.078C304.086 153.598 310.018 150.286 311.438 141.478C312.858 132.67 307.886 126.845 300.215 125.283Z" fill="#4758F1"/>
<path d="M343.158 335.007C343.158 335.007 299.119 251.19 296.277 245.223C293.436 239.257 283.776 226.757 283.776 226.757C283.776 226.757 273.831 221.072 269.285 211.156C264.739 201.241 259.727 165.787 259.727 165.787C259.727 165.787 246.658 160.87 243.532 158.703C240.407 156.536 237.565 136.647 237.565 134.374C237.565 132.101 240.691 127.554 240.691 127.554C240.691 127.554 239.554 122.166 248.362 118.183C248.362 118.183 247.794 109.938 252.34 108.188C255.83 106.845 267.257 105.108 267.257 105.108C267.257 105.108 269.956 102.684 272.797 101.907C275.638 101.13 296.379 106.528 296.379 106.528C296.379 106.528 306.892 107.006 308.881 108.187C310.869 109.369 312.859 111.643 312.859 111.643C312.859 111.643 322.235 113.593 324.223 117.022C326.212 120.45 327.065 137.498 325.644 148.579C324.223 159.66 326.77 178.446 326.77 178.446C326.77 178.446 329.7 192.957 331.973 198.471C334.247 203.984 375.729 247.698 375.729 247.698" stroke="#263238" stroke-miterlimit="10" stroke-linecap="round" stroke-linejoin="round"/>
<path d="M305.898 164.634C305.898 164.634 303.91 164.208 301.352 154.832C298.795 145.455 298.12 141.073 292.828 135.511C289.069 131.561 280.468 125.164 276.206 120.339C271.945 115.514 267.256 111.645 263.563 114.596C260.618 116.948 258.704 123.084 261.29 132.527C264.612 144.662 275.066 150.438 275.066 150.438L277.627 165.707C277.627 165.707 266.507 187.979 279.048 209.004" stroke="#263238" stroke-miterlimit="10" stroke-linecap="round" stroke-linejoin="round"/>
<path d="M287.059 130.263C287.059 130.263 292.543 123.72 300.215 125.283C307.886 126.845 312.858 132.67 311.438 141.478C310.018 150.286 304.086 153.598 300.872 153.079" stroke="#263238" stroke-miterlimit="10" stroke-linecap="round" stroke-linejoin="round"/>
<path d="M267.256 105.109C267.256 105.109 265.946 108.044 264.612 114.035" stroke="#263238" stroke-miterlimit="10" stroke-linecap="round" stroke-linejoin="round"/>
<path d="M262.589 135.892C262.589 135.892 263.247 145.598 264.612 148.581C265.977 151.565 268.25 153.98 269.245 157.815C270.239 161.651 270.381 167.617 270.665 168.47C270.95 169.322 272.595 169.551 272.595 169.551C274.927 169.607 275.898 168.38 277.26 166.507" stroke="#263238" stroke-miterlimit="10" stroke-linecap="round" stroke-linejoin="round"/>
<path d="M248.362 118.184C248.362 118.184 250.493 138.921 252.198 147.728C253.903 156.536 256.886 157.815 261.858 160.657C266.83 163.498 269.529 169.322 269.955 170.175C270.381 171.027 272.007 171.142 272.007 171.142C273.506 171.17 275.915 169.791 276.588 168.149" stroke="#263238" stroke-miterlimit="10" stroke-linecap="round" stroke-linejoin="round"/>
<path d="M240.691 127.556C240.156 128.376 244.71 149.433 247.083 155.542C249.457 161.651 249.731 162.641 256.008 164.348C262.285 166.055 267.056 168.951 268.757 167.938" stroke="#263238" stroke-miterlimit="10" stroke-linecap="round" stroke-linejoin="round"/>
<path d="M284.304 115.906C284.304 115.906 287.567 123.72 285.41 128.855" stroke="#263238" stroke-miterlimit="10" stroke-linecap="round" stroke-linejoin="round"/>
<path d="M296.38 106.53C296.38 106.53 304.762 109.941 312.859 111.645" stroke="#263238" stroke-miterlimit="10" stroke-linecap="round" stroke-linejoin="round"/>
<path d="M317.973 133.522C317.973 133.522 315.474 138.095 311.681 139.076" stroke="#263238" stroke-miterlimit="10" stroke-linecap="round" stroke-linejoin="round"/>
<path d="M311.681 128.548C311.681 128.548 310.782 130.878 309.832 131.561" stroke="#263238" stroke-miterlimit="10" stroke-linecap="round" stroke-linejoin="round"/>
<path d="M314.827 147.302C314.827 147.302 309.142 151.606 303.684 152.721" stroke="#263238" stroke-miterlimit="10" stroke-linecap="round" stroke-linejoin="round"/>
<path d="M301.352 154.832C301.352 154.832 303.679 157.815 309.832 158.099" stroke="#263238" stroke-miterlimit="10" stroke-linecap="round" stroke-linejoin="round"/>
<path d="M282.986 141.8C282.986 141.8 288.55 136.461 291.726 137.197" stroke="#263238" stroke-miterlimit="10" stroke-linecap="round" stroke-linejoin="round"/>
<path d="M293.852 142.888C293.852 142.888 289.643 146.056 288.871 146.026" stroke="#263238" stroke-miterlimit="10" stroke-linecap="round" stroke-linejoin="round"/>
<path d="M250.475 159.523C250.475 159.523 251.874 159.784 252.962 158.099" stroke="#263238" stroke-miterlimit="10" stroke-linecap="round" stroke-linejoin="round"/>
<path d="M255.45 151.905C255.45 151.905 258.828 149.81 261.04 149.407" stroke="#263238" stroke-miterlimit="10" stroke-linecap="round" stroke-linejoin="round"/>
<path d="M285.227 222.8C285.923 222.178 292.453 216.893 296.495 215.027" stroke="#263238" stroke-miterlimit="10" stroke-linecap="round" stroke-linejoin="round"/>
<path d="M293.696 220.302C293.23 220.158 289.523 224.044 287.566 225.599" stroke="#263238" stroke-miterlimit="10" stroke-linecap="round" stroke-linejoin="round"/>
<path d="M295.562 231.818C295.562 231.818 307.999 255.378 310.798 264.82" stroke="#263238" stroke-miterlimit="10" stroke-linecap="round" stroke-linejoin="round"/>
<path d="M331.975 198.473C333.033 204.268 336.452 208.534 338.317 210.847" stroke="#263238" stroke-miterlimit="10" stroke-linecap="round" stroke-linejoin="round"/>
<path opacity="0.4" d="M292.754 127.556C290.943 128.666 292.849 132.316 293.852 134.182C294.854 136.048 299.362 139.002 300.295 141.8C301.228 144.598 307.136 144.521 308.924 141.8C310.712 139.079 310.497 133.648 305.592 129.518C300.686 125.386 295.32 125.982 292.754 127.556Z" fill="white"/>
</svg>
