<svg width="25" height="26" viewBox="0 0 25 26" fill="none" xmlns="http://www.w3.org/2000/svg">
<g id="Group">
<g id="Vector">
<path d="M12.9999 25.4999C12.7819 25.4999 12.1541 25.6464 11.9999 25.4999C11.8458 25.3534 11.9999 24.7071 11.9999 24.4999V22.4999L10.9999 23.4999C10.8456 23.6464 10.218 23.5001 9.99992 23.4999C9.7818 23.4998 9.15404 23.6466 8.99992 23.4999C8.8458 23.3532 8.99977 23.7072 8.99992 23.4999C9.00007 23.2926 8.84558 22.6464 8.99992 22.4999L11.9999 20.4999V14.4999L5.99992 17.4999L4.99992 20.4999C4.94324 20.7001 5.1889 20.3965 4.99992 20.4999C4.81094 20.6034 4.2105 20.5538 3.99992 20.4999C3.78933 20.4461 4.10875 20.6796 3.99992 20.4999C3.89109 20.3203 3.94324 19.7001 3.99992 19.4999V18.4999L1.99992 19.4999C1.81123 19.6019 2.20939 19.554 1.99992 19.4999C1.79045 19.4459 1.10845 19.6786 0.999919 19.4999C0.891391 19.3213 0.944441 18.6994 0.999919 18.4999C0.812672 18.6043 1.0554 18.3005 0.999919 18.4999L2.99992 17.4999L1.99992 16.4999C1.89565 16.4733 2.08551 16.5625 1.99992 16.4999C1.91433 16.4374 1.05381 16.5889 0.999919 16.4999C0.946033 16.411 1.01389 16.6017 0.999919 16.4999C0.985945 16.3982 0.971855 15.599 0.999919 15.4999C0.934088 15.5813 1.02798 15.4008 0.999919 15.4999C1.06575 15.4186 1.90634 15.5511 1.99992 15.4999C1.89285 15.5132 2.09349 15.4487 1.99992 15.4999C1.89565 15.4733 2.10699 15.4866 1.99992 15.4999L4.99992 16.4999L10.9999 13.4999L4.99992 9.49993L1.99992 10.4999C1.7907 10.5495 2.18565 10.604 1.99992 10.4999C1.81419 10.3958 1.05556 10.6979 0.999919 10.4999C0.944283 10.3019 0.893526 9.67818 0.999919 9.49993C1.10631 9.32168 1.79257 9.55612 1.99992 9.49993L2.99992 8.49993L0.999919 7.49993C0.905686 7.44901 1.06633 7.58136 0.999919 7.49993C0.933504 7.4185 1.02832 7.59936 0.999919 7.49993C0.971518 7.4005 0.985947 7.6021 0.999919 7.49993C1.01389 7.39776 0.945718 6.58916 0.999919 6.49993C0.91381 6.56252 1.05412 6.4107 0.999919 6.49993C1.08603 6.43735 1.89512 6.52627 1.99992 6.49993C1.89252 6.48597 2.10472 6.4736 1.99992 6.49993C1.9064 6.44782 2.10732 6.51389 1.99992 6.49993L3.99992 7.49993V6.49993C3.97001 6.40021 3.98695 5.60289 3.99992 5.49993C3.94609 5.59012 4.01289 5.39697 3.99992 5.49993C3.91359 5.56333 4.05375 5.40974 3.99992 5.49993C3.89452 5.52669 4.08625 5.43653 3.99992 5.49993C4.10532 5.47317 4.89183 5.48588 4.99992 5.49993C4.90594 5.44726 5.10801 5.51398 4.99992 5.49993C4.93467 5.41683 5.0939 5.5526 4.99992 5.49993C4.97354 5.39931 5.06517 5.58303 4.99992 5.49993L5.99992 8.49993L11.9999 11.4999V5.49993L8.99992 3.49993C8.9235 3.4274 9.04132 3.59474 8.99992 3.49993C8.95852 3.40512 9 2.60258 8.99992 2.49993C8.95866 2.5948 8.99984 2.39728 8.99992 2.49993C8.92361 2.57257 9.04118 2.40507 8.99992 2.49993C9.07623 2.42729 9.90017 2.53928 9.99992 2.49993C9.89192 2.5 10.0997 2.46058 9.99992 2.49993C9.90011 2.46072 10.1079 2.49986 9.99992 2.49993C10.0997 2.53915 10.9235 2.4274 10.9999 2.49993L11.9999 3.49993V1.49993C11.9999 1.29273 11.8458 0.646444 11.9999 0.499931C12.1541 0.353418 12.7819 0.499931 12.9999 0.499931C12.8458 0.353418 13.2179 0.499931 12.9999 0.499931C13.1541 0.646444 12.9999 1.29273 12.9999 1.49993V3.49993L13.9999 2.49993C14.1543 2.35344 14.7818 2.49978 14.9999 2.49993C15.218 2.50008 15.8458 2.35323 15.9999 2.49993C16.0001 2.29262 16.154 2.64663 15.9999 2.49993C15.9998 2.70725 16.1543 3.35344 15.9999 3.49993L12.9999 5.49993V11.4999L18.9999 8.49993L19.9999 5.49993C19.8109 5.60337 20.0566 5.29978 19.9999 5.49993C20.1889 5.39649 20.7893 5.44606 20.9999 5.49993C20.8911 5.32031 21.2105 5.5538 20.9999 5.49993C21.1087 5.67956 21.0566 6.29978 20.9999 6.49993V7.49993L22.9999 6.49993C22.7905 6.44588 23.1886 6.39796 22.9999 6.49993C23.2094 6.55398 23.8914 6.32127 23.9999 6.49993C24.1084 6.67859 24.0554 7.30048 23.9999 7.49993C23.9444 7.69938 24.1872 7.3956 23.9999 7.49993L21.9999 8.49993L22.9999 9.49993C23.2105 9.5538 23.8911 9.32031 23.9999 9.49993C24.1087 9.67956 24.0566 10.2998 23.9999 10.4999C23.9432 10.7001 23.1889 10.3965 22.9999 10.4999C22.8109 10.6034 23.2105 10.5538 22.9999 10.4999L19.9999 9.49993L13.9999 13.4999L19.9999 16.4999L22.9999 15.4999C22.8111 15.3963 23.2105 15.4463 22.9999 15.4999C23.1887 15.6035 23.9435 15.2998 23.9999 15.4999C24.0564 15.7001 24.1089 16.3205 23.9999 16.4999C23.8909 16.6794 23.2105 16.4463 22.9999 16.4999L21.9999 17.4999L23.9999 18.4999C23.9444 18.3005 24.1872 18.6043 23.9999 18.4999C24.0554 18.6994 24.1084 19.3213 23.9999 19.4999C23.8914 19.6786 23.2094 19.4459 22.9999 19.4999C22.7905 19.554 23.1886 19.6019 22.9999 19.4999L20.9999 18.4999V19.4999C21.0298 19.5997 21.0129 20.397 20.9999 20.4999C20.9869 20.6029 21.0538 20.4097 20.9999 20.4999C20.9461 20.5901 21.0862 20.4365 20.9999 20.4999C20.9136 20.5633 21.1053 20.4732 20.9999 20.4999C20.8945 20.5267 20.108 20.514 19.9999 20.4999C19.8918 20.4859 20.0939 20.5526 19.9999 20.4999C19.9059 20.4473 20.0652 20.583 19.9999 20.4999C19.9347 20.4168 20.0263 20.6005 19.9999 20.4999L18.9999 17.4999L12.9999 14.4999V20.4999L15.9999 22.4999C16.1543 22.6464 15.9998 23.2926 15.9999 23.4999C16.0001 23.7072 16.154 23.3532 15.9999 23.4999C15.8458 23.6466 15.218 23.4998 14.9999 23.4999C14.7818 23.5001 14.1543 23.6464 13.9999 23.4999L12.9999 22.4999V24.4999C12.9999 24.7071 13.1541 25.3534 12.9999 25.4999C13.2179 25.4999 12.8458 25.6464 12.9999 25.4999Z" fill="#484848"/>
</g>
</g>
</svg>
