<svg width="24" height="24" viewBox="0 0 24 24" fill="none" xmlns="http://www.w3.org/2000/svg">
<g id="bell-dot">
<path id="Vector" opacity="0.7" d="M19.4 14.9C20.2 16.4 21 17 21 17H3C3 17 6 15 6 8C6 4.7 8.7 2 12 2C12.7 2 13.3 2.1 13.9 2.3" stroke="black" stroke-width="2" stroke-linecap="round" stroke-linejoin="round"/>
<path id="Vector_2" opacity="0.7" d="M10.3 21C10.4674 21.3044 10.7134 21.5583 11.0125 21.7352C11.3115 21.912 11.6526 22.0053 12 22.0053C12.3474 22.0053 12.6885 21.912 12.9875 21.7352C13.2865 21.5583 13.5326 21.3044 13.7 21" stroke="black" stroke-width="2" stroke-linecap="round" stroke-linejoin="round"/>
<path id="Vector_3" d="M18 11C19.6569 11 21 9.65685 21 8C21 6.34315 19.6569 5 18 5C16.3431 5 15 6.34315 15 8C15 9.65685 16.3431 11 18 11Z" fill="#FF3D00"/>
</g>
</svg>
