<svg width="48" height="24" viewBox="0 0 48 24" fill="none" xmlns="http://www.w3.org/2000/svg">
<g id="bKash Logo Vector 1" clip-path="url(#clip0_3036_2655)">
<path id="Vector" d="M30.6205 11.3031L21.5923 0.083047L21.6367 -0.00219727L33.4365 1.36971C32.5014 4.684 31.573 7.94947 30.6205 11.3031Z" fill="#DA0236"/>
<path id="Vector_2" d="M31.0923 11.3899C32.038 8.0632 32.9732 4.77732 33.9324 1.39819C36.8418 5.3325 39.6924 9.18521 42.5438 13.0394C42.5288 13.0685 42.5137 13.0977 42.4994 13.1275L31.0923 11.3899Z" fill="#E80259"/>
<path id="Vector_3" d="M31.1182 11.875L42.0348 13.5653L42.0551 13.6709L32.6229 18.2493C32.121 16.1241 31.6305 14.0447 31.1182 11.875Z" fill="#DA0236"/>
<path id="Vector_4" d="M27.0356 23.9593C28.2093 19.9521 29.3822 15.9449 30.5815 11.8511C30.6302 11.9399 30.6717 12.0322 30.7056 12.1272C31.2676 14.573 31.8229 17.0203 32.3909 19.4654C32.4473 19.7088 32.3909 19.8523 32.19 20.0111C30.5702 21.2774 28.9617 22.556 27.3494 23.8303C27.2741 23.8908 27.1921 23.9432 27.1131 23.9993L27.0356 23.9593Z" fill="#96011D"/>
<path id="Vector_5" d="M39.6187 8.39541L45.2808 7.40527C44.5548 9.32434 43.8559 11.1706 43.1224 13.1078L39.6187 8.39541Z" fill="#DA0236"/>
<path id="Vector_6" d="M34.1265 18.0104L42.5829 13.835L42.6514 13.8911C42.5453 14.2029 42.4467 14.5184 42.3271 14.8258C42.3008 14.8921 42.2022 14.9468 42.1247 14.9774C39.495 16.0037 36.864 17.0293 34.2318 18.0541C34.2102 18.06 34.188 18.0637 34.1656 18.0651L34.1265 18.0104Z" fill="#E80259"/>
<path id="Vector_7" d="M47.9647 9.792H44.8267L45.6678 7.57275L48.0001 9.69437C47.988 9.72715 47.9768 9.75994 47.9647 9.792Z" fill="#E80259"/>
<path id="Vector_8" d="M26.0502 6.46248L21.2412 2.05387C21.2525 2.02546 21.2645 1.99632 21.2758 1.96717C21.6813 1.96717 22.0876 1.96208 22.4931 1.97373C22.5556 1.97373 22.6293 2.04659 22.6744 2.10269C23.8035 3.50253 24.932 4.9043 26.06 6.30803C26.082 6.34222 26.0994 6.37893 26.1119 6.41731L26.0502 6.46248Z" fill="#96011D"/>
<path id="Vector_9" d="M0 15.3512C0.0218182 15.008 0.0428846 14.4995 0.0428846 14.0529V7.97656H0.978056V11.1342H0.999874C1.33241 10.5732 1.93279 10.2096 2.7694 10.2096C4.05668 10.2096 4.96853 11.2486 4.95799 12.775C4.95799 14.5724 3.78884 15.4656 2.63022 15.4656C1.87787 15.4656 1.27599 15.1851 0.892289 14.5184H0.86069L0.815548 15.3512H0ZM0.978056 13.336C0.981247 13.4478 0.995609 13.5591 1.02094 13.6682C1.20376 14.3021 1.75072 14.7385 2.43687 14.7385C3.42395 14.7385 4.0168 13.9596 4.0168 12.8063C4.0168 11.7987 3.48038 10.9368 2.47223 10.9368C1.82897 10.9368 1.22784 11.3623 1.03523 12.0588C1.00211 12.1824 0.982942 12.3092 0.978056 12.4369V13.336Z" fill="#F0047F"/>
<path id="Vector_10" d="M6.17773 8.35229H7.1114V11.7278H7.14752C7.34012 11.4582 7.53347 11.2083 7.71554 10.9803L9.9252 8.35229H11.0838L8.46639 11.3227L11.2854 15.351H10.1787L7.79755 11.9128L7.1114 12.6815V15.351H6.17773V8.35229Z" fill="black"/>
<path id="Vector_11" d="M15.0049 15.351L14.9297 14.7172H14.8966C14.7123 14.9549 14.4722 15.1468 14.1962 15.2769C13.9201 15.407 13.6161 15.4716 13.3091 15.4654C12.2558 15.4654 11.7217 14.7485 11.7217 14.0214C11.7217 12.8061 12.8367 12.1416 14.8424 12.1518V12.0477C14.8424 11.6324 14.7251 10.8819 13.6627 10.8819C13.1843 10.8826 12.7155 11.012 12.3085 11.2557L12.0941 10.6532C12.5229 10.3829 13.1474 10.2065 13.7989 10.2065C15.3864 10.2065 15.7731 11.2557 15.7731 12.2633V14.143C15.7673 14.5475 15.7975 14.9516 15.8634 15.351H15.0049ZM14.8658 12.7857C13.8358 12.7646 12.6666 12.9409 12.6666 13.9172C12.6666 14.5095 13.0744 14.7915 13.5574 14.7915C13.8318 14.7985 14.1013 14.7207 14.3269 14.5694C14.5526 14.4181 14.7226 14.2011 14.8123 13.95C14.8454 13.856 14.8635 13.7578 14.8658 13.6585V12.7857Z" fill="black"/>
<path id="Vector_12" d="M17.1717 14.4186C17.5455 14.6453 17.9752 14.7711 18.4161 14.7829C19.1022 14.7829 19.4242 14.4507 19.4242 14.0347C19.4242 13.5975 19.1557 13.36 18.459 13.1101C17.5253 12.7881 17.0859 12.2912 17.0859 11.6865C17.0859 10.8763 17.7631 10.2118 18.8773 10.2118C19.3242 10.207 19.7648 10.3142 20.1563 10.5229L19.9208 11.1881C19.6015 10.9974 19.2336 10.8965 18.8585 10.8967C18.301 10.8967 17.9895 11.2078 17.9895 11.5823C17.9895 11.9976 18.301 12.1848 18.9766 12.434C19.8794 12.7662 20.3391 13.2026 20.3391 13.9501C20.3391 14.8332 19.6311 15.4561 18.3973 15.4561C17.8285 15.4561 17.3034 15.3213 16.9385 15.1137L17.1717 14.4186Z" fill="black"/>
<path id="Vector_13" d="M21.5474 7.97852H22.4953V11.115H22.5171C22.6773 10.8441 22.9116 10.6212 23.1943 10.471C23.487 10.3041 23.8199 10.2146 24.1595 10.2116C24.8562 10.2116 25.9719 10.6269 25.9719 12.3616V15.351H25.0232V12.4651C25.0232 11.6556 24.7118 10.97 23.8195 10.97C23.2078 10.97 22.7255 11.3853 22.5533 11.8837C22.502 12.0238 22.4803 12.1724 22.4893 12.3208V15.351H21.5474V7.97852Z" fill="black"/>
</g>
<defs>
<clipPath id="clip0_3036_2655">
<rect width="48" height="24" fill="white"/>
</clipPath>
</defs>
</svg>
