<svg width="28" height="28" viewBox="0 0 28 28" fill="none" xmlns="http://www.w3.org/2000/svg">
<g id="ph:paper-plane">
<path id="Vector" d="M6.21578 25.3657L23.9208 15.4509C24.181 15.3052 24.3976 15.0928 24.5483 14.8356C24.6991 14.5784 24.7786 14.2857 24.7786 13.9875C24.7786 13.6894 24.6991 13.3966 24.5483 13.1394C24.3976 12.8822 24.181 12.6698 23.9208 12.5242L6.21578 2.60925C5.91787 2.4424 5.57613 2.37046 5.23624 2.40304C4.89635 2.43562 4.5745 2.57117 4.31371 2.79157C4.05293 3.01197 3.86563 3.30673 3.77685 3.63643C3.68808 3.96614 3.70206 4.31509 3.81692 4.63664L7.15641 13.9874L3.81692 23.3384C3.75118 23.5215 3.71746 23.7146 3.71724 23.9092C3.7189 24.2011 3.79665 24.4876 3.94283 24.7404C4.089 24.9931 4.29854 25.2034 4.55078 25.3504C4.80302 25.4975 5.08924 25.5762 5.3812 25.5789C5.67316 25.5816 5.96078 25.5081 6.21567 25.3657L6.21578 25.3657ZM8.6379 14.8261L14.7553 14.8261C14.9777 14.8261 15.191 14.7377 15.3482 14.5805C15.5055 14.4232 15.5938 14.2099 15.5938 13.9875C15.5938 13.7651 15.5055 13.5518 15.3482 13.3946C15.191 13.2373 14.9777 13.149 14.7553 13.149L8.6379 13.149L5.39715 4.07303L23.1016 13.9875L5.39663 23.9016L8.6379 14.8261Z" fill="white"/>
</g>
</svg>
