<svg width="24" height="24" viewBox="9 6.5 24 24" fill="none" xmlns="http://www.w3.org/2000/svg">
    <g id="social media links">
        <path id="fb icon" d="M30.4286 7H11.5714C10.8894 7 10.2354 7.27092 9.75315 7.75315C9.27092 8.23539 9 8.88944 9 9.57143V28.4286C9 29.1106 9.27092 29.7646 9.75315 30.2468C10.2354 30.7291 10.8894 31 11.5714 31H18.9241V22.8405H15.5491V19H18.9241V16.0729C18.9241 12.7434 20.9063 10.9043 23.9421 10.9043C25.3961 10.9043 26.9164 11.1636 26.9164 11.1636V14.4314H25.2413C23.5907 14.4314 23.0759 15.4557 23.0759 16.5063V19H26.7605L26.1713 22.8405H23.0759V31H30.4286C31.1106 31 31.7646 30.7291 32.2468 30.2468C32.7291 29.7646 33 29.1106 33 28.4286V9.57143C33 8.88944 32.7291 8.23539 32.2468 7.75315C31.7646 7.27092 31.1106 7 30.4286 7Z" fill="#F3F3F3"/>
    </g>
</svg>
