<svg width="24" height="24" viewBox="155 6 24 24" fill="none" xmlns="http://www.w3.org/2000/svg">
    <g id="social media links">
        <path id="linkedin icoon" fill-rule="evenodd" clip-rule="evenodd" d="M156 9.00509C156 8.47331 156.211 7.96331 156.587 7.58728C156.963 7.21125 157.473 7 158.005 7H177.993C178.256 6.99957 178.517 7.05113 178.761 7.15171C179.004 7.2523 179.226 7.39994 179.412 7.58619C179.599 7.77243 179.747 7.99363 179.847 8.2371C179.948 8.48058 180 8.74156 180 9.00509V28.9927C180 29.2563 179.949 29.5174 179.848 29.761C179.747 30.0046 179.599 30.2259 179.413 30.4123C179.227 30.5988 179.006 30.7466 178.762 30.8475C178.518 30.9483 178.257 31.0001 177.994 31H158.005C157.742 31 157.481 30.9481 157.238 30.8473C156.994 30.7464 156.773 30.5986 156.587 30.4123C156.401 30.226 156.253 30.0049 156.152 29.7615C156.052 29.5181 156 29.2572 156 28.9938V9.00509ZM165.5 16.1505H168.749V17.7825C169.219 16.8444 170.419 16 172.222 16C175.679 16 176.498 17.8687 176.498 21.2975V27.6487H173V22.0785C173 20.1258 172.531 19.024 171.339 19.024C169.687 19.024 168.999 20.212 168.999 22.0785V27.6487H165.5V16.1505ZM159.5 27.4993H162.999V16H159.5V27.4982V27.4993ZM163.5 12.2495C163.507 12.5491 163.453 12.847 163.343 13.1258C163.233 13.4046 163.068 13.6585 162.859 13.8728C162.649 14.087 162.399 14.2572 162.123 14.3735C161.846 14.4897 161.55 14.5495 161.25 14.5495C160.95 14.5495 160.654 14.4897 160.377 14.3735C160.101 14.2572 159.851 14.087 159.641 13.8728C159.432 13.6585 159.267 13.4046 159.157 13.1258C159.047 12.847 158.993 12.5491 159 12.2495C159.013 11.6613 159.256 11.1016 159.676 10.6902C160.097 10.2788 160.662 10.0485 161.25 10.0485C161.838 10.0485 162.403 10.2788 162.824 10.6902C163.244 11.1016 163.487 11.6613 163.5 12.2495Z" fill="#F3F3F3"/>
    </g>
</svg>
