<svg width="24" height="24" viewBox="58 7.5 24 24" fill="none" xmlns="http://www.w3.org/2000/svg">
    <g id="social media links">
        <path id="twitter icon" d="M84 10.6096C83.0071 11.0506 81.9405 11.3486 80.8191 11.4832C81.9761 10.7893 82.8417 9.69719 83.2544 8.41062C82.1674 9.05779 80.9777 9.51332 79.737 9.75742C78.9027 8.86456 77.7977 8.27275 76.5934 8.07389C75.3891 7.87502 74.1531 8.08022 73.0771 8.65763C72.0011 9.23505 71.1454 10.1524 70.6429 11.2672C70.1403 12.382 70.019 13.6319 70.2979 14.8228C68.0952 14.712 65.9405 14.1382 63.9735 13.1386C62.0064 12.1391 60.2711 10.7361 58.88 9.02085C58.4043 9.84324 58.1308 10.7967 58.1308 11.8122C58.1303 12.7263 58.3549 13.6265 58.7847 14.4328C59.2145 15.2391 59.8362 15.9265 60.5947 16.4342C59.7151 16.4062 58.8549 16.1679 58.0857 15.7394V15.8109C58.0856 17.093 58.528 18.3357 59.338 19.3281C60.148 20.3204 61.2755 21.0014 62.5294 21.2553C61.7134 21.4767 60.8579 21.5093 60.0275 21.3507C60.3812 22.4539 61.0703 23.4186 61.9983 24.1097C62.9262 24.8009 64.0466 25.1839 65.2025 25.2051C63.2403 26.7491 60.8169 27.5866 58.3223 27.5829C57.8804 27.583 57.4389 27.5571 57 27.5054C59.5322 29.1373 62.4798 30.0034 65.4903 30C75.681 30 81.252 21.5402 81.252 14.2031C81.252 13.9647 81.246 13.7239 81.2353 13.4856C82.3189 12.7001 83.2543 11.7274 83.9976 10.6132L84 10.6096Z" fill="#F3F3F3"/>
    </g>
</svg>
