<svg width="24" height="24" viewBox="108 7 24 24" fill="none" xmlns="http://www.w3.org/2000/svg">
    <g id="social media links">
        <path id="insta icon" d="M120 7C116.738 7 116.331 7.01575 115.055 7.06976C113.773 7.13277 112.906 7.33154 112.141 7.62858C111.34 7.93088 110.615 8.40419 110.016 9.0155C109.402 9.61317 108.929 10.3388 108.629 11.1405C108.332 11.9056 108.133 12.7727 108.07 14.0546C108.012 15.332 108 15.7378 108 19C108 22.2622 108.016 22.6687 108.07 23.9454C108.133 25.2235 108.332 26.0944 108.629 26.8595C108.931 27.6602 109.404 28.3854 110.016 28.9845C110.613 29.5975 111.339 30.0711 112.141 30.3714C112.906 30.6647 113.776 30.8672 115.055 30.9302C116.332 30.988 116.738 31 120 31C123.262 31 123.669 30.9842 124.945 30.9302C126.224 30.8672 127.094 30.664 127.859 30.3714C128.66 30.0691 129.385 29.5958 129.984 28.9845C130.598 28.3875 131.072 27.6617 131.371 26.8595C131.665 26.0944 131.867 25.2235 131.93 23.9454C131.988 22.668 132 22.2622 132 19C132 15.7378 131.984 15.3313 131.93 14.0546C131.867 12.7765 131.664 11.9011 131.371 11.1405C131.069 10.3398 130.596 9.61457 129.984 9.0155C129.387 8.40169 128.662 7.928 127.859 7.62858C127.094 7.33154 126.224 7.13277 124.945 7.06976C123.668 7.012 123.262 7 120 7ZM120 9.16027C123.204 9.16027 123.586 9.17602 124.852 9.23003C126.02 9.28479 126.656 9.47981 127.079 9.64483C127.601 9.83755 128.073 10.1443 128.462 10.5427C128.86 10.9296 129.165 11.4011 129.356 11.9221C129.521 12.3444 129.716 12.9805 129.771 14.1484C129.825 15.4146 129.84 15.7978 129.84 19.0007C129.84 22.2037 129.825 22.5869 129.766 23.8531C129.703 25.021 129.508 25.6571 129.344 26.0794C129.117 26.6427 128.863 27.0365 128.445 27.4626C128.055 27.8585 127.582 28.1637 127.061 28.3567C126.644 28.5217 125.999 28.7167 124.827 28.7715C123.554 28.8255 123.179 28.8412 119.967 28.8412C116.755 28.8412 116.381 28.8255 115.106 28.767C113.938 28.704 113.294 28.5089 112.872 28.3447C112.302 28.1174 111.911 27.8639 111.492 27.4453C111.07 27.023 110.802 26.621 110.595 26.0621C110.427 25.6451 110.235 25 110.172 23.8276C110.13 22.5697 110.109 22.1796 110.109 18.9827C110.109 15.7873 110.13 15.3966 110.172 14.1229C110.235 12.9505 110.427 12.3069 110.595 11.8884C110.802 11.3175 111.071 10.9275 111.492 10.5052C111.91 10.0874 112.302 9.81735 112.872 9.60583C113.294 9.44156 113.923 9.24653 115.095 9.18802C116.368 9.14227 116.743 9.12577 119.95 9.12577L120 9.16027ZM120 12.841C119.191 12.8407 118.39 12.9998 117.642 13.3093C116.895 13.6188 116.215 14.0726 115.643 14.6447C115.071 15.2168 114.617 15.8961 114.308 16.6436C113.998 17.3912 113.839 18.1924 113.839 19.0015C113.839 19.8106 113.998 20.6118 114.308 21.3594C114.617 22.1069 115.071 22.7862 115.643 23.3583C116.215 23.9304 116.895 24.3842 117.642 24.6937C118.39 25.0032 119.191 25.1623 120 25.162C120.809 25.1623 121.61 25.0032 122.358 24.6937C123.105 24.3842 123.785 23.9304 124.357 23.3583C124.929 22.7862 125.383 22.1069 125.692 21.3594C126.002 20.6118 126.161 19.8106 126.161 19.0015C126.161 18.1924 126.002 17.3912 125.692 16.6436C125.383 15.8961 124.929 15.2168 124.357 14.6447C123.785 14.0726 123.105 13.6188 122.358 13.3093C121.61 12.9998 120.809 12.8407 120 12.841ZM120 23.0018C117.789 23.0018 116 21.2128 116 19.0015C116 16.7902 117.789 15.0013 120 15.0013C122.211 15.0013 124 16.7902 124 19.0015C124 21.2128 122.211 23.0018 120 23.0018ZM127.849 12.5949C127.849 12.9772 127.696 13.3437 127.426 13.6139C127.156 13.8841 126.789 14.0359 126.407 14.0359C126.218 14.0359 126.03 13.9986 125.856 13.9263C125.681 13.854 125.522 13.7479 125.389 13.6143C125.255 13.4806 125.149 13.3219 125.077 13.1473C125.004 12.9727 124.967 12.7855 124.967 12.5964C124.967 12.4074 125.004 12.2202 125.077 12.0456C125.149 11.871 125.255 11.7123 125.389 11.5786C125.522 11.445 125.681 11.3389 125.856 11.2666C126.03 11.1943 126.218 11.157 126.407 11.157C127.199 11.157 127.849 11.8021 127.849 12.5949Z" fill="#F3F3F3"/>
    </g>
</svg>
