<svg width="19" height="19" viewBox="0 0 19 19" fill="none" xmlns="http://www.w3.org/2000/svg">
<path id="Vector" d="M9.2608 1.1486C9.3525 0.962807 9.61744 0.962807 9.70915 1.1486L11.8292 5.4436C12.0839 5.95958 12.576 6.31739 13.1453 6.40061L17.888 7.09382C18.0929 7.12378 18.1746 7.37574 18.0262 7.52028L14.5961 10.8612C14.1833 11.2633 13.9949 11.8428 14.0923 12.4107L14.9016 17.1294C14.9366 17.3337 14.7223 17.4894 14.5389 17.3929L10.2995 15.1635C9.78959 14.8954 9.18035 14.8954 8.67043 15.1635L4.43109 17.3929C4.24769 17.4894 4.0333 17.3337 4.06833 17.1294L4.87764 12.4107C4.97505 11.8428 4.78664 11.2633 4.37386 10.8612L0.943707 7.52028C0.795305 7.37574 0.877006 7.12378 1.08198 7.09382L5.8246 6.40061C6.39397 6.31739 6.88604 5.95959 7.14074 5.4436L9.2608 1.1486L8.58827 0.816631L9.2608 1.1486Z" stroke="#FF8515" stroke-width="1.5" stroke-linecap="round" stroke-linejoin="round"/>
</svg>
