<svg width="30" height="22" viewBox="0 0 30 22" fill="none" xmlns="http://www.w3.org/2000/svg">
<g id="tv">
<g id="Vector">
<path d="M5 20.4636C4.82418 20.6277 5 20.2316 5 20.4636C5.17582 20.2995 5.75136 19.4636 6 19.4636H24C24.2486 19.4636 24.8242 20.2995 25 20.4636C25 20.2316 25.1758 20.6277 25 20.4636C25 20.6957 25.1758 21.2995 25 21.4636C24.8242 21.6277 24.2486 21.4636 24 21.4636H6C5.75136 21.4636 5.17582 21.6277 5 21.4636C4.82418 21.2995 5 20.6957 5 20.4636ZM26 2.46362C26.3503 2.48588 26.6841 2.32059 27 2.46362C27.2275 2.56246 27.8567 2.27134 28 2.46362C28.1256 2.63862 28 3.89487 28 4.46362V14.4636C27.976 14.7906 28.1531 15.1687 28 15.4636C27.894 15.6759 27.206 15.3298 27 15.4636C26.8125 15.5809 26.6094 16.4636 26 16.4636H4C3.6497 16.4412 3.31601 15.6065 3 15.4636C2.77251 15.3647 2.14339 15.6559 2 15.4636C1.87437 15.2886 2 15.0324 2 14.4636V4.46362V3.46362C1.84675 3.7585 2.02385 3.13664 2 3.46362C2.10597 3.2513 2.79404 2.59746 3 2.46362C3.1875 2.34637 3.39062 2.46362 4 2.46362H26ZM26 0.463623H4C0.25 0.463623 0 4.46362 0 4.46362V14.4636C0 17.9636 4 18.4636 4 18.4636H26C29.75 18.4636 30 14.4636 30 14.4636V4.46362C30 0.963623 26 0.463623 26 0.463623Z" fill="#484848"/>
</g>
</g>
</svg>
