<?xml version="1.0" encoding="UTF-8"?>
<svg id="Layer_2" data-name="Layer 2" xmlns="http://www.w3.org/2000/svg" viewBox="0 0 974 392.63">
  <defs>
    <style>
      .cls-1 {
        fill: #f68f00;
      }

      .cls-2 {
        fill: #f69400;
      }

      .cls-3 {
        fill: #909090;
      }

      .cls-4 {
        fill: #3a3a3a;
      }
    </style>
  </defs>
  <g id="Layer_1-2" data-name="Layer 1">
    <g>
      <g>
        <path class="cls-3" d="M512.02,220.11h60.4v62.4h-62.4v-60.4c0-1.1,.9-2,2-2Z"/>
        <path class="cls-4" d="M593.23,220.11h60.4c1.1,0,2,.9,2,2v60.4h-62.4v-62.4h0Z"/>
        <path class="cls-4" d="M510.02,303.32h62.4v62.4h-60.4c-1.1,0-2-.9-2-2v-60.4h0Z"/>
        <path class="cls-3" d="M593.23,303.32h62.4v60.4c0,1.1-.9,2-2,2h-60.4v-62.4h0Z"/>
      </g>
      <polygon class="cls-2" points="918.4 337.04 621.41 40.04 582.1 .73 542.79 40.04 487.73 95.1 448.42 134.41 245.79 337.04 190.19 392.63 268.82 392.63 324.41 337.04 487.73 173.72 527.04 134.41 582.1 79.36 839.78 337.04 895.38 392.63 974 392.63 918.4 337.04"/>
      <polygon class="cls-1" points="431.95 39.31 392.63 0 353.32 39.31 55.6 337.04 0 392.63 78.62 392.63 134.22 337.04 392.63 78.62 427.75 113.74 467.06 74.42 431.95 39.31"/>
    </g>
  </g>
</svg>