<svg width="175" height="100" viewBox="0 0 175 100" fill="none" xmlns="http://www.w3.org/2000/svg">
<path d="M73.0914 28.5715H80.4489V35.936H73.0914V28.5715Z" fill="#4D4D4D"/>
<path d="M73.0914 38.5034H80.4489V45.8679H73.0914V38.5034Z" fill="#858585"/>
<path d="M62.9074 28.5715H70.2649V35.936H62.9074V28.5715Z" fill="#858585"/>
<path d="M62.9074 38.5034H70.2649V45.8679H62.9074V38.5034Z" fill="#4D4D4D"/>
<path d="M49.3989 0L59.3214 9.93205L53.5613 15.6977L49.3989 11.5312L12.5229 48.4425H1.00267L49.3989 0Z" fill="#FF8515"/>
<path opacity="0.8" d="M71.9595 0L112.675 40.7549H174.019V48.4425H120.356H108.835L71.9595 11.5312L35.0835 48.4425H23.5633L71.9595 0Z" fill="#FF8515"/>
<path d="M151.434 100C150.114 100 148.929 99.6786 147.879 99.0352C146.829 98.3918 145.983 97.5452 145.339 96.4955C144.73 95.4458 144.425 94.2775 144.425 92.9907V77.5495C144.425 76.2627 144.73 75.0945 145.339 74.0447C145.983 72.995 146.829 72.1484 147.879 71.505C148.929 70.8616 150.114 70.54 151.434 70.54H167.739V60.8892H174.393V100H151.434ZM151.739 93.3463H167.13C167.299 93.3463 167.434 93.2955 167.536 93.1939C167.671 93.0585 167.739 92.9061 167.739 92.7368V77.8034C167.739 77.6341 167.671 77.4987 167.536 77.3971C167.434 77.2616 167.299 77.1939 167.13 77.1939H151.739C151.57 77.1939 151.418 77.2616 151.282 77.3971C151.18 77.4987 151.13 77.6341 151.13 77.8034V92.7368C151.13 92.9061 151.18 93.0585 151.282 93.1939C151.418 93.2955 151.57 93.3463 151.739 93.3463Z" fill="#858585"/>
<path d="M109.593 100V60.8892H116.247V70.54H132.501C133.787 70.54 134.956 70.8616 136.005 71.505C137.089 72.1484 137.936 72.995 138.545 74.0447C139.188 75.0945 139.51 76.2627 139.51 77.5495V92.9907C139.51 94.2775 139.188 95.4458 138.545 96.4955C137.936 97.5452 137.089 98.3918 136.005 99.0352C134.956 99.6786 133.787 100 132.501 100H109.593ZM116.856 93.3463H132.247C132.416 93.3463 132.551 93.2955 132.653 93.1939C132.788 93.0585 132.856 92.9061 132.856 92.7368V77.8034C132.856 77.6341 132.788 77.4987 132.653 77.3971C132.551 77.2616 132.416 77.1939 132.247 77.1939H116.856C116.687 77.1939 116.534 77.2616 116.399 77.3971C116.297 77.4987 116.247 77.6341 116.247 77.8034V92.7368C116.247 92.9061 116.297 93.0585 116.399 93.1939C116.534 93.2955 116.687 93.3463 116.856 93.3463Z" fill="#858585"/>
<path d="M79.1169 100C77.7963 100 76.6111 99.6786 75.5614 99.0352C74.5117 98.3918 73.6651 97.5452 73.0217 96.4955C72.4122 95.4458 72.1074 94.2775 72.1074 92.9907V77.5495C72.1074 76.2627 72.4122 75.0945 73.0217 74.0447C73.6651 72.995 74.5117 72.1484 75.5614 71.505C76.6111 70.8616 77.7963 70.54 79.1169 70.54H95.4217V60.8892H102.076V100H79.1169ZM79.4217 93.3463H94.8122C94.9815 93.3463 95.1169 93.2955 95.2185 93.1939C95.354 93.0585 95.4217 92.9061 95.4217 92.7368V77.8034C95.4217 77.6341 95.354 77.4987 95.2185 77.3971C95.1169 77.2616 94.9815 77.1939 94.8122 77.1939H79.4217C79.2524 77.1939 79.1 77.2616 78.9646 77.3971C78.863 77.4987 78.8122 77.6341 78.8122 77.8034V92.7368C78.8122 92.9061 78.863 93.0585 78.9646 93.1939C79.1 93.2955 79.2524 93.3463 79.4217 93.3463Z" fill="#333333"/>
<path d="M43.3387 100C42.052 100 40.8837 99.6787 39.834 99.0353C38.7843 98.3919 37.9377 97.5453 37.2943 96.4956C36.6509 95.4459 36.3292 94.2776 36.3292 92.9908V77.5496C36.3292 76.2628 36.6509 75.0945 37.2943 74.0448C37.9377 72.9951 38.7843 72.1485 39.834 71.5051C40.8837 70.8617 42.052 70.54 43.3387 70.54H59.2372C60.5239 70.54 61.6922 70.8617 62.7419 71.5051C63.8255 72.1485 64.6721 72.9951 65.2816 74.0448C65.925 75.0945 66.2467 76.2628 66.2467 77.5496V88.6226H42.9832V92.7369C42.9832 92.9062 43.034 93.0586 43.1356 93.194C43.271 93.2956 43.4234 93.3464 43.5927 93.3464H66.2467V100H43.3387ZM42.9832 82.6289H59.5927V77.8035C59.5927 77.6342 59.525 77.4988 59.3895 77.3972C59.288 77.2617 59.1525 77.194 58.9832 77.194H43.5927C43.4234 77.194 43.271 77.2617 43.1356 77.3972C43.034 77.4988 42.9832 77.6342 42.9832 77.8035V82.6289Z" fill="#333333"/>
<path d="M0.570923 100V60.8892H7.22489V70.54H23.4789C24.7656 70.54 25.9339 70.8616 26.9836 71.505C28.0672 72.1484 28.9138 72.995 29.5233 74.0447C30.1667 75.0945 30.4884 76.2627 30.4884 77.5495V92.9907C30.4884 94.2775 30.1667 95.4458 29.5233 96.4955C28.9138 97.5452 28.0672 98.3918 26.9836 99.0352C25.9339 99.6786 24.7656 100 23.4789 100H0.570923ZM7.83442 93.3463H23.2249C23.3942 93.3463 23.5297 93.2955 23.6312 93.1939C23.7667 93.0585 23.8344 92.9061 23.8344 92.7368V77.8034C23.8344 77.6341 23.7667 77.4987 23.6312 77.3971C23.5297 77.2616 23.3942 77.1939 23.2249 77.1939H7.83442C7.6651 77.1939 7.51272 77.2616 7.37727 77.3971C7.27568 77.4987 7.22489 77.6341 7.22489 77.8034V92.7368C7.22489 92.9061 7.27568 93.0585 7.37727 93.1939C7.51272 93.2955 7.6651 93.3463 7.83442 93.3463Z" fill="#333333"/>
</svg>
